<svg width="16" height="15" viewBox="0 0 16 15" fill="none" xmlns="http://www.w3.org/2000/svg">
<path fill-rule="evenodd" clip-rule="evenodd" d="M6.06118 5.11723L8.34918 7.40429L7.35153 8.40287L4.35671 5.40899L3.69129 4.74358C3.60307 4.65533 3.55351 4.53566 3.55351 4.41087C3.55351 4.28609 3.60307 4.16642 3.69129 4.07817L7.35153 0.416992L8.34918 1.41558L6.05929 3.70546H10.3529C11.8506 3.70546 13.287 4.30042 14.346 5.35945C15.405 6.41848 16 7.85483 16 9.35252C16 10.8502 15.405 12.2866 14.346 13.3456C13.287 14.4046 11.8506 14.9996 10.3529 14.9996H0V13.5878H10.3529C11.4762 13.5878 12.5535 13.1416 13.3477 12.3473C14.142 11.5531 14.5882 10.4758 14.5882 9.35252C14.5882 8.22925 14.142 7.15199 13.3477 6.35772C12.5535 5.56345 11.4762 5.11723 10.3529 5.11723H6.06118Z" fill="#282843"/>
</svg>
