<svg width="1159" height="468" viewBox="0 0 1159 468" fill="none" xmlns="http://www.w3.org/2000/svg">
<g filter="url(#filter0_d_3_872)">
<path d="M1145.5 5H13.5C11.567 5 10 6.567 10 8.5V449.5C10 451.433 11.567 453 13.5 453H1145.5C1147.43 453 1149 451.433 1149 449.5V8.5C1149 6.567 1147.43 5 1145.5 5Z" fill="white"/>
</g>
<g opacity="0.5">
<path opacity="0.607" d="M147.277 103.24V376.833" stroke="#8097B1" stroke-width="0.5" stroke-miterlimit="10" stroke-linecap="square" stroke-dasharray="2 2 2 2 2 2"/>
<path opacity="0.607" d="M208.039 103.24V376.833" stroke="#8097B1" stroke-width="0.5" stroke-miterlimit="10" stroke-linecap="square" stroke-dasharray="2 2 2 2 2 2"/>
<path opacity="0.607" d="M268.805 103.24V376.833" stroke="#8097B1" stroke-width="0.5" stroke-miterlimit="10" stroke-linecap="square" stroke-dasharray="2 2 2 2 2 2"/>
<path opacity="0.607" d="M329.566 103.24V376.833" stroke="#8097B1" stroke-width="0.5" stroke-miterlimit="10" stroke-linecap="square" stroke-dasharray="2 2 2 2 2 2"/>
<path opacity="0.607" d="M390.332 103.24V376.833" stroke="#8097B1" stroke-width="0.5" stroke-miterlimit="10" stroke-linecap="square" stroke-dasharray="2 2 2 2 2 2"/>
<path opacity="0.607" d="M451.094 103.24V376.833" stroke="#8097B1" stroke-width="0.5" stroke-miterlimit="10" stroke-linecap="square" stroke-dasharray="2 2 2 2 2 2"/>
<path opacity="0.607" d="M511.855 103.24V376.833" stroke="#8097B1" stroke-width="0.5" stroke-miterlimit="10" stroke-linecap="square" stroke-dasharray="2 2 2 2 2 2"/>
<path opacity="0.607" d="M572.621 103.24V376.833" stroke="#8097B1" stroke-width="0.5" stroke-miterlimit="10" stroke-linecap="square" stroke-dasharray="2 2 2 2 2 2"/>
<path opacity="0.607" d="M633.383 103.24V376.833" stroke="#8097B1" stroke-width="0.5" stroke-miterlimit="10" stroke-linecap="square" stroke-dasharray="2 2 2 2 2 2"/>
<path opacity="0.607" d="M694.145 103.24V376.833" stroke="#8097B1" stroke-width="0.5" stroke-miterlimit="10" stroke-linecap="square" stroke-dasharray="2 2 2 2 2 2"/>
<path opacity="0.607" d="M754.91 103.24V376.833" stroke="#8097B1" stroke-width="0.5" stroke-miterlimit="10" stroke-linecap="square" stroke-dasharray="2 2 2 2 2 2"/>
<path opacity="0.607" d="M815.672 103.24V376.833" stroke="#8097B1" stroke-width="0.5" stroke-miterlimit="10" stroke-linecap="square" stroke-dasharray="2 2 2 2 2 2"/>
<path opacity="0.607" d="M876.438 103.24V376.833" stroke="#8097B1" stroke-width="0.5" stroke-miterlimit="10" stroke-linecap="square" stroke-dasharray="2 2 2 2 2 2"/>
<path opacity="0.607" d="M937.199 103.24V376.833" stroke="#8097B1" stroke-width="0.5" stroke-miterlimit="10" stroke-linecap="square" stroke-dasharray="2 2 2 2 2 2"/>
<path opacity="0.607" d="M997.961 103.24V376.833" stroke="#8097B1" stroke-width="0.5" stroke-miterlimit="10" stroke-linecap="square" stroke-dasharray="2 2 2 2 2 2"/>
<path opacity="0.607" d="M1058.73 103.24V376.833" stroke="#8097B1" stroke-width="0.5" stroke-miterlimit="10" stroke-linecap="square" stroke-dasharray="2 2 2 2 2 2"/>
<path opacity="0.607" d="M1119.49 103.24V376.833" stroke="#8097B1" stroke-width="0.5" stroke-miterlimit="10" stroke-linecap="square" stroke-dasharray="2 2 2 2 2 2"/>
</g>
<g opacity="0.5">
<path opacity="0.756" d="M89.5312 329.75H1119.71" stroke="#8097B1" stroke-width="0.5" stroke-miterlimit="10" stroke-linecap="square" stroke-dasharray="2 2 2 2"/>
<path opacity="0.756" d="M87.7617 284.75H1117.94" stroke="#8097B1" stroke-width="0.5" stroke-miterlimit="10" stroke-linecap="square" stroke-dasharray="2 2 2 2"/>
<path opacity="0.756" d="M89.5312 238.75H1119.71" stroke="#8097B1" stroke-width="0.5" stroke-miterlimit="10" stroke-linecap="square" stroke-dasharray="2 2 2 2"/>
<path opacity="0.756" d="M87.7617 192.75H1117.94" stroke="#8097B1" stroke-width="0.5" stroke-miterlimit="10" stroke-linecap="square" stroke-dasharray="2 2 2 2"/>
<path opacity="0.756" d="M89.5312 147.75H1119.71" stroke="#8097B1" stroke-width="0.5" stroke-miterlimit="10" stroke-linecap="square" stroke-dasharray="2 2 2 2"/>
<path opacity="0.756" d="M87.7617 102.75H1117.94" stroke="#8097B1" stroke-width="0.5" stroke-miterlimit="10" stroke-linecap="square" stroke-dasharray="2 2 2 2"/>
</g>
<path d="M87.0195 102.59V376.09" stroke="#E0E7FF" stroke-miterlimit="10" stroke-linecap="square"/>
<path d="M87.7617 376H1117.94" stroke="#E0E7FF" stroke-miterlimit="10" stroke-linecap="square"/>
<path d="M89.543 256L149.175 223.5L210.828 243L271.976 185L331.608 113L393.261 129L452.388 178.5L514.043 209.5L574.686 176.5L633.307 164L695.464 105.5L756.107 151L817.76 223.5L877.392 246.5L939.551 180.75L998.5 115.5L1058.31 129L1119.96 136V329.516H89.543" fill="url(#paint0_linear_3_872)"/>
<path d="M89.543 256L149.175 223.5L210.828 243L271.976 185L331.608 113L393.261 129L452.388 178.5L514.043 209.5L574.686 176.5L633.307 164L695.464 105.5L756.107 151L817.76 223.5L877.392 246.5L939.551 180.75L998.5 115.5L1058.31 129L1119.96 136" stroke="#3A96FD" stroke-width="2" stroke-miterlimit="10"/>
<path d="M89.543 259.5C91.7521 259.5 93.543 257.709 93.543 255.5C93.543 253.291 91.7521 251.5 89.543 251.5C87.3338 251.5 85.543 253.291 85.543 255.5C85.543 257.709 87.3338 259.5 89.543 259.5Z" fill="white"/>
<path d="M89.543 258.5C91.1998 258.5 92.543 257.157 92.543 255.5C92.543 253.843 91.1998 252.5 89.543 252.5C87.8861 252.5 86.543 253.843 86.543 255.5C86.543 257.157 87.8861 258.5 89.543 258.5Z" stroke="#3794FC" stroke-width="2" stroke-miterlimit="10"/>
<path d="M149.176 228.5C151.385 228.5 153.176 226.709 153.176 224.5C153.176 222.291 151.385 220.5 149.176 220.5C146.967 220.5 145.176 222.291 145.176 224.5C145.176 226.709 146.967 228.5 149.176 228.5Z" fill="white"/>
<path d="M149.176 227.5C150.833 227.5 152.176 226.157 152.176 224.5C152.176 222.843 150.833 221.5 149.176 221.5C147.519 221.5 146.176 222.843 146.176 224.5C146.176 226.157 147.519 227.5 149.176 227.5Z" stroke="#3794FC" stroke-width="2" stroke-miterlimit="10"/>
<path d="M210.828 246.5C213.037 246.5 214.828 244.709 214.828 242.5C214.828 240.291 213.037 238.5 210.828 238.5C208.619 238.5 206.828 240.291 206.828 242.5C206.828 244.709 208.619 246.5 210.828 246.5Z" fill="white"/>
<path d="M210.828 245.5C212.485 245.5 213.828 244.157 213.828 242.5C213.828 240.843 212.485 239.5 210.828 239.5C209.171 239.5 207.828 240.843 207.828 242.5C207.828 244.157 209.171 245.5 210.828 245.5Z" stroke="#3794FC" stroke-width="2" stroke-miterlimit="10"/>
<path d="M332.113 117.5C334.322 117.5 336.113 115.709 336.113 113.5C336.113 111.291 334.322 109.5 332.113 109.5C329.904 109.5 328.113 111.291 328.113 113.5C328.113 115.709 329.904 117.5 332.113 117.5Z" fill="white"/>
<path d="M332.113 116.5C333.77 116.5 335.113 115.157 335.113 113.5C335.113 111.843 333.77 110.5 332.113 110.5C330.456 110.5 329.113 111.843 329.113 113.5C329.113 115.157 330.456 116.5 332.113 116.5Z" stroke="#3794FC" stroke-width="2" stroke-miterlimit="10"/>
<path d="M270.461 190.5C272.67 190.5 274.461 188.709 274.461 186.5C274.461 184.291 272.67 182.5 270.461 182.5C268.252 182.5 266.461 184.291 266.461 186.5C266.461 188.709 268.252 190.5 270.461 190.5Z" fill="white"/>
<path d="M270.461 189.5C272.118 189.5 273.461 188.157 273.461 186.5C273.461 184.843 272.118 183.5 270.461 183.5C268.804 183.5 267.461 184.843 267.461 186.5C267.461 188.157 268.804 189.5 270.461 189.5Z" stroke="#3794FC" stroke-width="2" stroke-miterlimit="10"/>
<path d="M392.758 132.5C394.967 132.5 396.758 130.709 396.758 128.5C396.758 126.291 394.967 124.5 392.758 124.5C390.549 124.5 388.758 126.291 388.758 128.5C388.758 130.709 390.549 132.5 392.758 132.5Z" fill="white"/>
<path d="M392.758 131.5C394.415 131.5 395.758 130.157 395.758 128.5C395.758 126.843 394.415 125.5 392.758 125.5C391.101 125.5 389.758 126.843 389.758 128.5C389.758 130.157 391.101 131.5 392.758 131.5Z" stroke="#3794FC" stroke-width="2" stroke-miterlimit="10"/>
<path d="M452.387 182.5C454.596 182.5 456.387 180.709 456.387 178.5C456.387 176.291 454.596 174.5 452.387 174.5C450.178 174.5 448.387 176.291 448.387 178.5C448.387 180.709 450.178 182.5 452.387 182.5Z" fill="white"/>
<path d="M452.387 181.5C454.044 181.5 455.387 180.157 455.387 178.5C455.387 176.843 454.044 175.5 452.387 175.5C450.73 175.5 449.387 176.843 449.387 178.5C449.387 180.157 450.73 181.5 452.387 181.5Z" stroke="#3794FC" stroke-width="2" stroke-miterlimit="10"/>
<path d="M515.051 213.5C517.26 213.5 519.051 211.709 519.051 209.5C519.051 207.291 517.26 205.5 515.051 205.5C512.842 205.5 511.051 207.291 511.051 209.5C511.051 211.709 512.842 213.5 515.051 213.5Z" fill="white"/>
<path d="M515.051 212.5C516.708 212.5 518.051 211.157 518.051 209.5C518.051 207.843 516.708 206.5 515.051 206.5C513.394 206.5 512.051 207.843 512.051 209.5C512.051 211.157 513.394 212.5 515.051 212.5Z" stroke="#3794FC" stroke-width="2" stroke-miterlimit="10"/>
<path d="M574.684 180.5C576.893 180.5 578.684 178.709 578.684 176.5C578.684 174.291 576.893 172.5 574.684 172.5C572.474 172.5 570.684 174.291 570.684 176.5C570.684 178.709 572.474 180.5 574.684 180.5Z" fill="white"/>
<path d="M574.684 179.5C576.34 179.5 577.684 178.157 577.684 176.5C577.684 174.843 576.34 173.5 574.684 173.5C573.027 173.5 571.684 174.843 571.684 176.5C571.684 178.157 573.027 179.5 574.684 179.5Z" stroke="#3794FC" stroke-width="2" stroke-miterlimit="10"/>
<path d="M633.305 167.5C635.514 167.5 637.305 165.709 637.305 163.5C637.305 161.291 635.514 159.5 633.305 159.5C631.096 159.5 629.305 161.291 629.305 163.5C629.305 165.709 631.096 167.5 633.305 167.5Z" fill="white"/>
<path d="M633.305 166.5C634.962 166.5 636.305 165.157 636.305 163.5C636.305 161.843 634.962 160.5 633.305 160.5C631.648 160.5 630.305 161.843 630.305 163.5C630.305 165.157 631.648 166.5 633.305 166.5Z" stroke="#3794FC" stroke-width="2" stroke-miterlimit="10"/>
<path d="M695.969 110.5C698.178 110.5 699.969 108.709 699.969 106.5C699.969 104.291 698.178 102.5 695.969 102.5C693.76 102.5 691.969 104.291 691.969 106.5C691.969 108.709 693.76 110.5 695.969 110.5Z" fill="white"/>
<path d="M695.969 109.5C697.626 109.5 698.969 108.157 698.969 106.5C698.969 104.843 697.626 103.5 695.969 103.5C694.312 103.5 692.969 104.843 692.969 106.5C692.969 108.157 694.312 109.5 695.969 109.5Z" stroke="#3794FC" stroke-width="2" stroke-miterlimit="10"/>
<path d="M756.613 155.5C758.822 155.5 760.613 153.709 760.613 151.5C760.613 149.291 758.822 147.5 756.613 147.5C754.404 147.5 752.613 149.291 752.613 151.5C752.613 153.709 754.404 155.5 756.613 155.5Z" fill="white"/>
<path d="M756.613 154.5C758.27 154.5 759.613 153.157 759.613 151.5C759.613 149.843 758.27 148.5 756.613 148.5C754.956 148.5 753.613 149.843 753.613 151.5C753.613 153.157 754.956 154.5 756.613 154.5Z" stroke="#3794FC" stroke-width="2" stroke-miterlimit="10"/>
<path d="M816.242 226.5C818.451 226.5 820.242 224.709 820.242 222.5C820.242 220.291 818.451 218.5 816.242 218.5C814.033 218.5 812.242 220.291 812.242 222.5C812.242 224.709 814.033 226.5 816.242 226.5Z" fill="white"/>
<path d="M816.242 225.5C817.899 225.5 819.242 224.157 819.242 222.5C819.242 220.843 817.899 219.5 816.242 219.5C814.585 219.5 813.242 220.843 813.242 222.5C813.242 224.157 814.585 225.5 816.242 225.5Z" stroke="#3794FC" stroke-width="2" stroke-miterlimit="10"/>
<path d="M876.887 249.5C879.096 249.5 880.887 247.709 880.887 245.5C880.887 243.291 879.096 241.5 876.887 241.5C874.678 241.5 872.887 243.291 872.887 245.5C872.887 247.709 874.678 249.5 876.887 249.5Z" fill="white"/>
<path d="M876.887 248.5C878.544 248.5 879.887 247.157 879.887 245.5C879.887 243.843 878.544 242.5 876.887 242.5C875.23 242.5 873.887 243.843 873.887 245.5C873.887 247.157 875.23 248.5 876.887 248.5Z" stroke="#3794FC" stroke-width="2" stroke-miterlimit="10"/>
<path d="M939.551 184.5C941.76 184.5 943.551 182.709 943.551 180.5C943.551 178.291 941.76 176.5 939.551 176.5C937.342 176.5 935.551 178.291 935.551 180.5C935.551 182.709 937.342 184.5 939.551 184.5Z" fill="white"/>
<path d="M939.551 183.5C941.208 183.5 942.551 182.157 942.551 180.5C942.551 178.843 941.208 177.5 939.551 177.5C937.894 177.5 936.551 178.843 936.551 180.5C936.551 182.157 937.894 183.5 939.551 183.5Z" stroke="#3794FC" stroke-width="2" stroke-miterlimit="10"/>
<path d="M999.184 119.5C1001.39 119.5 1003.18 117.709 1003.18 115.5C1003.18 113.291 1001.39 111.5 999.184 111.5C996.974 111.5 995.184 113.291 995.184 115.5C995.184 117.709 996.974 119.5 999.184 119.5Z" fill="white"/>
<path d="M999.184 118.5C1000.84 118.5 1002.18 117.157 1002.18 115.5C1002.18 113.843 1000.84 112.5 999.184 112.5C997.527 112.5 996.184 113.843 996.184 115.5C996.184 117.157 997.527 118.5 999.184 118.5Z" stroke="#3794FC" stroke-width="2" stroke-miterlimit="10"/>
<path d="M1057.8 132.5C1060.01 132.5 1061.8 130.709 1061.8 128.5C1061.8 126.291 1060.01 124.5 1057.8 124.5C1055.6 124.5 1053.8 126.291 1053.8 128.5C1053.8 130.709 1055.6 132.5 1057.8 132.5Z" fill="white"/>
<path d="M1057.8 131.5C1059.46 131.5 1060.8 130.157 1060.8 128.5C1060.8 126.843 1059.46 125.5 1057.8 125.5C1056.15 125.5 1054.8 126.843 1054.8 128.5C1054.8 130.157 1056.15 131.5 1057.8 131.5Z" stroke="#3794FC" stroke-width="2" stroke-miterlimit="10"/>
<path d="M1119.46 140.5C1121.67 140.5 1123.46 138.709 1123.46 136.5C1123.46 134.291 1121.67 132.5 1119.46 132.5C1117.25 132.5 1115.46 134.291 1115.46 136.5C1115.46 138.709 1117.25 140.5 1119.46 140.5Z" fill="white"/>
<path d="M1119.46 139.5C1121.11 139.5 1122.46 138.157 1122.46 136.5C1122.46 134.843 1121.11 133.5 1119.46 133.5C1117.8 133.5 1116.46 134.843 1116.46 136.5C1116.46 138.157 1117.8 139.5 1119.46 139.5Z" stroke="#3794FC" stroke-width="2" stroke-miterlimit="10"/>
<path d="M137.083 401.986C137.083 403.148 136.837 404.053 136.345 404.7C135.853 405.343 135.194 405.664 134.369 405.664C133.986 405.664 133.672 405.609 133.426 405.5V404.365C133.672 404.543 133.991 404.632 134.383 404.632C135.417 404.632 135.935 403.755 135.935 402V395.697H137.083V401.986ZM144.438 405.5H143.317V404.406H143.29C142.802 405.245 142.085 405.664 141.137 405.664C140.439 405.664 139.893 405.479 139.496 405.11C139.104 404.741 138.908 404.251 138.908 403.641C138.908 402.333 139.678 401.572 141.219 401.357L143.317 401.063C143.317 399.874 142.837 399.279 141.875 399.279C141.032 399.279 140.271 399.566 139.592 400.141V398.992C140.28 398.555 141.073 398.336 141.971 398.336C143.616 398.336 144.438 399.206 144.438 400.947V405.5ZM143.317 401.959L141.629 402.191C141.109 402.264 140.717 402.394 140.453 402.581C140.189 402.763 140.057 403.089 140.057 403.559C140.057 403.9 140.177 404.181 140.419 404.399C140.665 404.614 140.991 404.721 141.396 404.721C141.952 404.721 142.41 404.527 142.771 404.14C143.135 403.748 143.317 403.253 143.317 402.656V401.959ZM152.361 405.5H151.24V401.508C151.24 400.022 150.698 399.279 149.613 399.279C149.053 399.279 148.588 399.491 148.219 399.915C147.854 400.334 147.672 400.865 147.672 401.508V405.5H146.551V398.5H147.672V399.662H147.699C148.228 398.778 148.993 398.336 149.996 398.336C150.762 398.336 151.347 398.584 151.753 399.081C152.159 399.573 152.361 400.286 152.361 401.221V405.5Z" fill="#97A4BA"/>
<path d="M201.051 396.736H197.223V400.127H200.764V401.159H197.223V405.5H196.074V395.697H201.051V396.736ZM208.386 402.28H203.443C203.462 403.06 203.671 403.661 204.072 404.085C204.473 404.509 205.025 404.721 205.727 404.721C206.515 404.721 207.24 404.461 207.9 403.941V404.994C207.285 405.441 206.472 405.664 205.46 405.664C204.471 405.664 203.694 405.347 203.129 404.714C202.564 404.076 202.281 403.18 202.281 402.027C202.281 400.938 202.589 400.052 203.204 399.368C203.824 398.68 204.592 398.336 205.508 398.336C206.424 398.336 207.132 398.632 207.634 399.225C208.135 399.817 208.386 400.64 208.386 401.692V402.28ZM207.237 401.33C207.233 400.683 207.076 400.179 206.766 399.819C206.46 399.459 206.034 399.279 205.487 399.279C204.959 399.279 204.51 399.468 204.141 399.847C203.771 400.225 203.544 400.719 203.457 401.33H207.237ZM211.236 404.488H211.209V405.5H210.088V395.137H211.209V399.73H211.236C211.788 398.801 212.594 398.336 213.656 398.336C214.554 398.336 215.256 398.65 215.762 399.279C216.272 399.904 216.527 400.742 216.527 401.795C216.527 402.966 216.243 403.905 215.673 404.611C215.103 405.313 214.324 405.664 213.335 405.664C212.41 405.664 211.71 405.272 211.236 404.488ZM211.209 401.665V402.643C211.209 403.221 211.396 403.714 211.77 404.119C212.148 404.52 212.626 404.721 213.205 404.721C213.884 404.721 214.415 404.461 214.798 403.941C215.185 403.422 215.379 402.7 215.379 401.774C215.379 400.995 215.199 400.384 214.839 399.942C214.479 399.5 213.991 399.279 213.376 399.279C212.724 399.279 212.2 399.507 211.804 399.963C211.407 400.414 211.209 400.981 211.209 401.665Z" fill="#97A4BA"/>
<path d="M262.295 405.5H261.153V398.924C261.153 398.404 261.185 397.769 261.249 397.017H261.222C261.112 397.459 261.014 397.775 260.928 397.967L257.578 405.5H257.018L253.675 398.021C253.579 397.803 253.481 397.468 253.381 397.017H253.354C253.39 397.409 253.408 398.049 253.408 398.938V405.5H252.301V395.697H253.818L256.826 402.533C257.059 403.057 257.209 403.449 257.277 403.709H257.318C257.514 403.171 257.672 402.77 257.79 402.506L260.859 395.697H262.295V405.5ZM269.739 405.5H268.618V404.406H268.591C268.103 405.245 267.385 405.664 266.438 405.664C265.74 405.664 265.193 405.479 264.797 405.11C264.405 404.741 264.209 404.251 264.209 403.641C264.209 402.333 264.979 401.572 266.52 401.357L268.618 401.063C268.618 399.874 268.137 399.279 267.176 399.279C266.333 399.279 265.572 399.566 264.893 400.141V398.992C265.581 398.555 266.374 398.336 267.271 398.336C268.917 398.336 269.739 399.206 269.739 400.947V405.5ZM268.618 401.959L266.93 402.191C266.41 402.264 266.018 402.394 265.754 402.581C265.49 402.763 265.357 403.089 265.357 403.559C265.357 403.9 265.478 404.181 265.72 404.399C265.966 404.614 266.292 404.721 266.697 404.721C267.253 404.721 267.711 404.527 268.071 404.14C268.436 403.748 268.618 403.253 268.618 402.656V401.959ZM275.502 399.635C275.306 399.484 275.023 399.409 274.654 399.409C274.176 399.409 273.775 399.635 273.451 400.086C273.132 400.537 272.973 401.152 272.973 401.932V405.5H271.852V398.5H272.973V399.942H273C273.16 399.45 273.403 399.067 273.731 398.794C274.06 398.516 274.426 398.377 274.832 398.377C275.124 398.377 275.347 398.409 275.502 398.473V399.635Z" fill="#97A4BA"/>
<path d="M319.889 405.5H318.617L317.578 402.752H313.422L312.444 405.5H311.166L314.926 395.697H316.115L319.889 405.5ZM317.202 401.72L315.664 397.543C315.614 397.406 315.564 397.188 315.514 396.887H315.486C315.441 397.165 315.388 397.383 315.329 397.543L313.805 401.72H317.202ZM322.336 404.488H322.309V408.72H321.188V398.5H322.309V399.73H322.336C322.887 398.801 323.694 398.336 324.756 398.336C325.658 398.336 326.362 398.65 326.868 399.279C327.374 399.904 327.627 400.742 327.627 401.795C327.627 402.966 327.342 403.905 326.772 404.611C326.203 405.313 325.424 405.664 324.435 405.664C323.528 405.664 322.828 405.272 322.336 404.488ZM322.309 401.665V402.643C322.309 403.221 322.495 403.714 322.869 404.119C323.247 404.52 323.726 404.721 324.305 404.721C324.984 404.721 325.515 404.461 325.897 403.941C326.285 403.422 326.479 402.7 326.479 401.774C326.479 400.995 326.299 400.384 325.938 399.942C325.578 399.5 325.091 399.279 324.476 399.279C323.824 399.279 323.3 399.507 322.903 399.963C322.507 400.414 322.309 400.981 322.309 401.665ZM333.068 399.635C332.872 399.484 332.59 399.409 332.221 399.409C331.742 399.409 331.341 399.635 331.018 400.086C330.699 400.537 330.539 401.152 330.539 401.932V405.5H329.418V398.5H330.539V399.942H330.566C330.726 399.45 330.97 399.067 331.298 398.794C331.626 398.516 331.993 398.377 332.398 398.377C332.69 398.377 332.913 398.409 333.068 398.473V399.635Z" fill="#97A4BA"/>
<path d="M385.896 405.5H384.755V398.924C384.755 398.404 384.787 397.769 384.851 397.017H384.823C384.714 397.459 384.616 397.775 384.529 397.967L381.18 405.5H380.619L377.276 398.021C377.181 397.803 377.083 397.468 376.982 397.017H376.955C376.992 397.409 377.01 398.049 377.01 398.938V405.5H375.902V395.697H377.42L380.428 402.533C380.66 403.057 380.811 403.449 380.879 403.709H380.92C381.116 403.171 381.273 402.77 381.392 402.506L384.461 395.697H385.896V405.5ZM393.341 405.5H392.22V404.406H392.192C391.705 405.245 390.987 405.664 390.039 405.664C389.342 405.664 388.795 405.479 388.398 405.11C388.007 404.741 387.811 404.251 387.811 403.641C387.811 402.333 388.581 401.572 390.121 401.357L392.22 401.063C392.22 399.874 391.739 399.279 390.777 399.279C389.934 399.279 389.173 399.566 388.494 400.141V398.992C389.182 398.555 389.975 398.336 390.873 398.336C392.518 398.336 393.341 399.206 393.341 400.947V405.5ZM392.22 401.959L390.531 402.191C390.012 402.264 389.62 402.394 389.355 402.581C389.091 402.763 388.959 403.089 388.959 403.559C388.959 403.9 389.08 404.181 389.321 404.399C389.567 404.614 389.893 404.721 390.299 404.721C390.855 404.721 391.313 404.527 391.673 404.14C392.037 403.748 392.22 403.253 392.22 402.656V401.959ZM401.024 398.5L397.805 406.621C397.23 408.07 396.424 408.795 395.385 408.795C395.093 408.795 394.849 408.765 394.653 408.706V407.701C394.895 407.783 395.116 407.824 395.316 407.824C395.882 407.824 396.305 407.487 396.588 406.812L397.148 405.486L394.414 398.5H395.658L397.552 403.887C397.575 403.955 397.622 404.133 397.695 404.42H397.736C397.759 404.311 397.805 404.137 397.873 403.9L399.862 398.5H401.024Z" fill="#97A4BA"/>
<path d="M438.411 401.986C438.411 403.148 438.165 404.053 437.673 404.7C437.181 405.343 436.522 405.664 435.697 405.664C435.314 405.664 435 405.609 434.754 405.5V404.365C435 404.543 435.319 404.632 435.711 404.632C436.745 404.632 437.263 403.755 437.263 402V395.697H438.411V401.986ZM446.416 405.5H445.295V404.393H445.268C444.803 405.24 444.083 405.664 443.107 405.664C441.439 405.664 440.605 404.671 440.605 402.684V398.5H441.72V402.506C441.72 403.982 442.285 404.721 443.415 404.721C443.962 404.721 444.411 404.52 444.762 404.119C445.117 403.714 445.295 403.185 445.295 402.533V398.5H446.416V405.5ZM454.496 405.5H453.375V401.508C453.375 400.022 452.833 399.279 451.748 399.279C451.188 399.279 450.723 399.491 450.354 399.915C449.989 400.334 449.807 400.865 449.807 401.508V405.5H448.686V398.5H449.807V399.662H449.834C450.363 398.778 451.128 398.336 452.131 398.336C452.896 398.336 453.482 398.584 453.888 399.081C454.293 399.573 454.496 400.286 454.496 401.221V405.5Z" fill="#97A4BA"/>
<path d="M495.138 401.986C495.138 403.148 494.892 404.053 494.399 404.7C493.907 405.343 493.249 405.664 492.424 405.664C492.041 405.664 491.727 405.609 491.48 405.5V404.365C491.727 404.543 492.046 404.632 492.438 404.632C493.472 404.632 493.989 403.755 493.989 402V395.697H495.138V401.986ZM503.143 405.5H502.021V404.393H501.994C501.529 405.24 500.809 405.664 499.834 405.664C498.166 405.664 497.332 404.671 497.332 402.684V398.5H498.446V402.506C498.446 403.982 499.011 404.721 500.142 404.721C500.688 404.721 501.137 404.52 501.488 404.119C501.844 403.714 502.021 403.185 502.021 402.533V398.5H503.143V405.5ZM506.533 405.5H505.412V395.137H506.533V405.5Z" fill="#97A4BA"/>
<path d="M561.217 405.5H559.945L558.906 402.752H554.75L553.772 405.5H552.494L556.254 395.697H557.443L561.217 405.5ZM558.53 401.72L556.992 397.543C556.942 397.406 556.892 397.188 556.842 396.887H556.814C556.769 397.165 556.716 397.383 556.657 397.543L555.133 401.72H558.53ZM568.176 405.5H567.055V404.393H567.027C566.562 405.24 565.842 405.664 564.867 405.664C563.199 405.664 562.365 404.671 562.365 402.684V398.5H563.479V402.506C563.479 403.982 564.045 404.721 565.175 404.721C565.722 404.721 566.171 404.52 566.521 404.119C566.877 403.714 567.055 403.185 567.055 402.533V398.5H568.176V405.5ZM576.42 404.939C576.42 407.51 575.189 408.795 572.729 408.795C571.863 408.795 571.106 408.631 570.459 408.303V407.182C571.247 407.619 571.999 407.838 572.715 407.838C574.438 407.838 575.299 406.922 575.299 405.09V404.324H575.271C574.738 405.217 573.936 405.664 572.865 405.664C571.995 405.664 571.293 405.354 570.76 404.734C570.231 404.11 569.967 403.274 569.967 402.226C569.967 401.036 570.252 400.09 570.821 399.389C571.396 398.687 572.179 398.336 573.173 398.336C574.116 398.336 574.816 398.714 575.271 399.471H575.299V398.5H576.42V404.939ZM575.299 402.335V401.303C575.299 400.747 575.11 400.271 574.731 399.874C574.358 399.478 573.891 399.279 573.33 399.279C572.637 399.279 572.095 399.532 571.703 400.038C571.311 400.539 571.115 401.243 571.115 402.15C571.115 402.93 571.302 403.554 571.676 404.023C572.054 404.488 572.553 404.721 573.173 404.721C573.802 404.721 574.312 404.497 574.704 404.051C575.101 403.604 575.299 403.032 575.299 402.335Z" fill="#97A4BA"/>
<path d="M617.354 405.104V403.75C617.509 403.887 617.694 404.01 617.908 404.119C618.127 404.229 618.355 404.322 618.592 404.399C618.833 404.472 619.075 404.529 619.316 404.57C619.558 404.611 619.781 404.632 619.986 404.632C620.693 404.632 621.219 404.502 621.565 404.242C621.916 403.978 622.092 403.6 622.092 403.107C622.092 402.843 622.033 402.613 621.914 402.417C621.8 402.221 621.641 402.043 621.436 401.884C621.23 401.72 620.987 401.565 620.704 401.419C620.426 401.269 620.125 401.111 619.802 400.947C619.46 400.774 619.141 400.599 618.845 400.421C618.549 400.243 618.291 400.047 618.072 399.833C617.854 399.619 617.68 399.377 617.553 399.108C617.43 398.835 617.368 398.516 617.368 398.151C617.368 397.705 617.466 397.317 617.662 396.989C617.858 396.657 618.116 396.383 618.435 396.169C618.754 395.955 619.116 395.795 619.521 395.69C619.932 395.586 620.349 395.533 620.772 395.533C621.739 395.533 622.443 395.649 622.885 395.882V397.174C622.306 396.773 621.563 396.572 620.656 396.572C620.406 396.572 620.155 396.6 619.904 396.654C619.654 396.704 619.43 396.789 619.234 396.907C619.038 397.026 618.879 397.178 618.756 397.365C618.633 397.552 618.571 397.78 618.571 398.049C618.571 398.299 618.617 398.516 618.708 398.698C618.804 398.881 618.943 399.047 619.125 399.197C619.307 399.348 619.528 399.493 619.788 399.635C620.052 399.776 620.355 399.931 620.697 400.1C621.048 400.273 621.381 400.455 621.695 400.646C622.01 400.838 622.285 401.05 622.522 401.282C622.759 401.515 622.946 401.772 623.083 402.055C623.224 402.337 623.295 402.661 623.295 403.025C623.295 403.508 623.199 403.919 623.008 404.256C622.821 404.589 622.566 404.86 622.242 405.069C621.923 405.279 621.554 405.429 621.135 405.521C620.715 405.616 620.273 405.664 619.809 405.664C619.654 405.664 619.462 405.65 619.234 405.623C619.007 405.6 618.774 405.564 618.537 405.514C618.3 405.468 618.075 405.411 617.86 405.343C617.651 405.27 617.482 405.19 617.354 405.104ZM630.726 402.28H625.783C625.801 403.06 626.011 403.661 626.412 404.085C626.813 404.509 627.365 404.721 628.066 404.721C628.855 404.721 629.579 404.461 630.24 403.941V404.994C629.625 405.441 628.812 405.664 627.8 405.664C626.811 405.664 626.034 405.347 625.469 404.714C624.904 404.076 624.621 403.18 624.621 402.027C624.621 400.938 624.929 400.052 625.544 399.368C626.164 398.68 626.932 398.336 627.848 398.336C628.764 398.336 629.472 398.632 629.974 399.225C630.475 399.817 630.726 400.64 630.726 401.692V402.28ZM629.577 401.33C629.573 400.683 629.415 400.179 629.105 399.819C628.8 399.459 628.374 399.279 627.827 399.279C627.299 399.279 626.85 399.468 626.48 399.847C626.111 400.225 625.883 400.719 625.797 401.33H629.577ZM633.576 404.488H633.549V408.72H632.428V398.5H633.549V399.73H633.576C634.128 398.801 634.934 398.336 635.996 398.336C636.898 398.336 637.603 398.65 638.108 399.279C638.614 399.904 638.867 400.742 638.867 401.795C638.867 402.966 638.582 403.905 638.013 404.611C637.443 405.313 636.664 405.664 635.675 405.664C634.768 405.664 634.068 405.272 633.576 404.488ZM633.549 401.665V402.643C633.549 403.221 633.736 403.714 634.109 404.119C634.488 404.52 634.966 404.721 635.545 404.721C636.224 404.721 636.755 404.461 637.138 403.941C637.525 403.422 637.719 402.7 637.719 401.774C637.719 400.995 637.539 400.384 637.179 399.942C636.819 399.5 636.331 399.279 635.716 399.279C635.064 399.279 634.54 399.507 634.144 399.963C633.747 400.414 633.549 400.981 633.549 401.665Z" fill="#97A4BA"/>
<path d="M681.264 405.664C679.874 405.664 678.759 405.206 677.921 404.29C677.087 403.374 676.67 402.182 676.67 400.715C676.67 399.138 677.096 397.88 677.948 396.941C678.8 396.003 679.96 395.533 681.428 395.533C682.781 395.533 683.87 395.989 684.695 396.9C685.525 397.812 685.939 399.004 685.939 400.476C685.939 402.075 685.516 403.34 684.668 404.27C683.82 405.199 682.686 405.664 681.264 405.664ZM681.346 396.572C680.316 396.572 679.479 396.944 678.837 397.687C678.194 398.429 677.873 399.405 677.873 400.612C677.873 401.82 678.185 402.793 678.81 403.531C679.438 404.265 680.257 404.632 681.264 404.632C682.339 404.632 683.187 404.281 683.807 403.579C684.426 402.877 684.736 401.895 684.736 400.633C684.736 399.339 684.436 398.338 683.834 397.632C683.232 396.925 682.403 396.572 681.346 396.572ZM692.488 405.179C691.951 405.502 691.312 405.664 690.574 405.664C689.576 405.664 688.77 405.34 688.154 404.693C687.544 404.042 687.238 403.199 687.238 402.164C687.238 401.011 687.569 400.086 688.229 399.389C688.89 398.687 689.772 398.336 690.875 398.336C691.49 398.336 692.033 398.45 692.502 398.678V399.826C691.982 399.462 691.426 399.279 690.834 399.279C690.118 399.279 689.531 399.537 689.07 400.052C688.615 400.562 688.387 401.234 688.387 402.068C688.387 402.889 688.601 403.536 689.029 404.01C689.462 404.484 690.041 404.721 690.766 404.721C691.376 404.721 691.951 404.518 692.488 404.112V405.179ZM697.431 405.432C697.166 405.577 696.818 405.65 696.385 405.65C695.159 405.65 694.546 404.967 694.546 403.6V399.457H693.343V398.5H694.546V396.791L695.667 396.429V398.5H697.431V399.457H695.667V403.401C695.667 403.871 695.747 404.206 695.906 404.406C696.066 404.607 696.33 404.707 696.699 404.707C696.982 404.707 697.226 404.63 697.431 404.475V405.432Z" fill="#97A4BA"/>
<path d="M742.445 405.5H741.037L735.992 397.687C735.865 397.491 735.76 397.285 735.678 397.071H735.637C735.673 397.281 735.691 397.73 735.691 398.418V405.5H734.543V395.697H736.033L740.941 403.388C741.146 403.707 741.279 403.925 741.338 404.044H741.365C741.32 403.761 741.297 403.281 741.297 402.602V395.697H742.445V405.5ZM747.791 405.664C746.757 405.664 745.929 405.338 745.31 404.687C744.694 404.03 744.387 403.162 744.387 402.082C744.387 400.906 744.708 399.988 745.351 399.327C745.993 398.666 746.861 398.336 747.955 398.336C748.999 398.336 749.812 398.657 750.396 399.3C750.983 399.942 751.277 400.833 751.277 401.973C751.277 403.089 750.961 403.985 750.327 404.659C749.698 405.329 748.853 405.664 747.791 405.664ZM747.873 399.279C747.153 399.279 746.583 399.525 746.164 400.018C745.745 400.505 745.535 401.18 745.535 402.041C745.535 402.87 745.747 403.524 746.171 404.003C746.595 404.481 747.162 404.721 747.873 404.721C748.598 404.721 749.154 404.486 749.541 404.017C749.933 403.547 750.129 402.88 750.129 402.014C750.129 401.139 749.933 400.464 749.541 399.99C749.154 399.516 748.598 399.279 747.873 399.279ZM758.571 398.5L755.782 405.5H754.682L752.029 398.5H753.26L755.037 403.586C755.169 403.96 755.251 404.285 755.283 404.563H755.311C755.356 404.213 755.429 403.896 755.529 403.613L757.389 398.5H758.571Z" fill="#97A4BA"/>
<path d="M796.043 405.5V395.697H798.75C802.204 395.697 803.932 397.29 803.932 400.476C803.932 401.989 803.451 403.205 802.489 404.126C801.532 405.042 800.249 405.5 798.641 405.5H796.043ZM797.191 396.736V404.461H798.654C799.939 404.461 800.94 404.117 801.655 403.429C802.371 402.741 802.729 401.765 802.729 400.503C802.729 397.992 801.393 396.736 798.723 396.736H797.191ZM811.335 402.28H806.393C806.411 403.06 806.62 403.661 807.021 404.085C807.423 404.509 807.974 404.721 808.676 404.721C809.464 404.721 810.189 404.461 810.85 403.941V404.994C810.234 405.441 809.421 405.664 808.409 405.664C807.42 405.664 806.643 405.347 806.078 404.714C805.513 404.076 805.23 403.18 805.23 402.027C805.23 400.938 805.538 400.052 806.153 399.368C806.773 398.68 807.541 398.336 808.457 398.336C809.373 398.336 810.082 398.632 810.583 399.225C811.084 399.817 811.335 400.64 811.335 401.692V402.28ZM810.187 401.33C810.182 400.683 810.025 400.179 809.715 399.819C809.41 399.459 808.983 399.279 808.437 399.279C807.908 399.279 807.459 399.468 807.09 399.847C806.721 400.225 806.493 400.719 806.406 401.33H810.187ZM817.809 405.179C817.271 405.502 816.633 405.664 815.895 405.664C814.896 405.664 814.09 405.34 813.475 404.693C812.864 404.042 812.559 403.199 812.559 402.164C812.559 401.011 812.889 400.086 813.55 399.389C814.211 398.687 815.092 398.336 816.195 398.336C816.811 398.336 817.353 398.45 817.822 398.678V399.826C817.303 399.462 816.747 399.279 816.154 399.279C815.439 399.279 814.851 399.537 814.391 400.052C813.935 400.562 813.707 401.234 813.707 402.068C813.707 402.889 813.921 403.536 814.35 404.01C814.783 404.484 815.361 404.721 816.086 404.721C816.697 404.721 817.271 404.518 817.809 404.112V405.179Z" fill="#97A4BA"/>
<path d="M863.04 401.986C863.04 403.148 862.794 404.053 862.302 404.7C861.81 405.343 861.151 405.664 860.326 405.664C859.943 405.664 859.629 405.609 859.383 405.5V404.365C859.629 404.543 859.948 404.632 860.34 404.632C861.374 404.632 861.892 403.755 861.892 402V395.697H863.04V401.986ZM870.396 405.5H869.274V404.406H869.247C868.759 405.245 868.042 405.664 867.094 405.664C866.396 405.664 865.85 405.479 865.453 405.11C865.061 404.741 864.865 404.251 864.865 403.641C864.865 402.333 865.635 401.572 867.176 401.357L869.274 401.063C869.274 399.874 868.794 399.279 867.832 399.279C866.989 399.279 866.228 399.566 865.549 400.141V398.992C866.237 398.555 867.03 398.336 867.928 398.336C869.573 398.336 870.396 399.206 870.396 400.947V405.5ZM869.274 401.959L867.586 402.191C867.066 402.264 866.674 402.394 866.41 402.581C866.146 402.763 866.014 403.089 866.014 403.559C866.014 403.9 866.134 404.181 866.376 404.399C866.622 404.614 866.948 404.721 867.354 404.721C867.91 404.721 868.368 404.527 868.728 404.14C869.092 403.748 869.274 403.253 869.274 402.656V401.959ZM878.318 405.5H877.197V401.508C877.197 400.022 876.655 399.279 875.57 399.279C875.01 399.279 874.545 399.491 874.176 399.915C873.811 400.334 873.629 400.865 873.629 401.508V405.5H872.508V398.5H873.629V399.662H873.656C874.185 398.778 874.951 398.336 875.953 398.336C876.719 398.336 877.304 398.584 877.71 399.081C878.116 399.573 878.318 400.286 878.318 401.221V405.5Z" fill="#97A4BA"/>
<path d="M927.008 396.736H923.18V400.127H926.721V401.159H923.18V405.5H922.031V395.697H927.008V396.736ZM934.343 402.28H929.4C929.419 403.06 929.628 403.661 930.029 404.085C930.43 404.509 930.982 404.721 931.684 404.721C932.472 404.721 933.197 404.461 933.857 403.941V404.994C933.242 405.441 932.429 405.664 931.417 405.664C930.428 405.664 929.651 405.347 929.086 404.714C928.521 404.076 928.238 403.18 928.238 402.027C928.238 400.938 928.546 400.052 929.161 399.368C929.781 398.68 930.549 398.336 931.465 398.336C932.381 398.336 933.09 398.632 933.591 399.225C934.092 399.817 934.343 400.64 934.343 401.692V402.28ZM933.194 401.33C933.19 400.683 933.033 400.179 932.723 399.819C932.417 399.459 931.991 399.279 931.444 399.279C930.916 399.279 930.467 399.468 930.098 399.847C929.729 400.225 929.501 400.719 929.414 401.33H933.194ZM937.193 404.488H937.166V405.5H936.045V395.137H937.166V399.73H937.193C937.745 398.801 938.551 398.336 939.613 398.336C940.511 398.336 941.213 398.65 941.719 399.279C942.229 399.904 942.484 400.742 942.484 401.795C942.484 402.966 942.2 403.905 941.63 404.611C941.06 405.313 940.281 405.664 939.292 405.664C938.367 405.664 937.667 405.272 937.193 404.488ZM937.166 401.665V402.643C937.166 403.221 937.353 403.714 937.727 404.119C938.105 404.52 938.583 404.721 939.162 404.721C939.841 404.721 940.372 404.461 940.755 403.941C941.142 403.422 941.336 402.7 941.336 401.774C941.336 400.995 941.156 400.384 940.796 399.942C940.436 399.5 939.948 399.279 939.333 399.279C938.681 399.279 938.157 399.507 937.761 399.963C937.364 400.414 937.166 400.981 937.166 401.665Z" fill="#97A4BA"/>
<path d="M988.752 405.5H987.61V398.924C987.61 398.404 987.642 397.769 987.706 397.017H987.679C987.569 397.459 987.471 397.775 987.385 397.967L984.035 405.5H983.475L980.132 398.021C980.036 397.803 979.938 397.468 979.838 397.017H979.811C979.847 397.409 979.865 398.049 979.865 398.938V405.5H978.758V395.697H980.275L983.283 402.533C983.516 403.057 983.666 403.449 983.734 403.709H983.775C983.971 403.171 984.129 402.77 984.247 402.506L987.316 395.697H988.752V405.5ZM996.196 405.5H995.075V404.406H995.048C994.56 405.245 993.842 405.664 992.895 405.664C992.197 405.664 991.65 405.479 991.254 405.11C990.862 404.741 990.666 404.251 990.666 403.641C990.666 402.333 991.436 401.572 992.977 401.357L995.075 401.063C995.075 399.874 994.594 399.279 993.633 399.279C992.79 399.279 992.029 399.566 991.35 400.141V398.992C992.038 398.555 992.831 398.336 993.729 398.336C995.374 398.336 996.196 399.206 996.196 400.947V405.5ZM995.075 401.959L993.387 402.191C992.867 402.264 992.475 402.394 992.211 402.581C991.947 402.763 991.814 403.089 991.814 403.559C991.814 403.9 991.935 404.181 992.177 404.399C992.423 404.614 992.749 404.721 993.154 404.721C993.71 404.721 994.168 404.527 994.528 404.14C994.893 403.748 995.075 403.253 995.075 402.656V401.959ZM1001.96 399.635C1001.76 399.484 1001.48 399.409 1001.11 399.409C1000.63 399.409 1000.23 399.635 999.908 400.086C999.589 400.537 999.43 401.152 999.43 401.932V405.5H998.309V398.5H999.43V399.942H999.457C999.617 399.45 999.86 399.067 1000.19 398.794C1000.52 398.516 1000.88 398.377 1001.29 398.377C1001.58 398.377 1001.8 398.409 1001.96 398.473V399.635Z" fill="#97A4BA"/>
<path d="M1047.35 405.5H1046.07L1045.04 402.752H1040.88L1039.9 405.5H1038.62L1042.38 395.697H1043.57L1047.35 405.5ZM1044.66 401.72L1043.12 397.543C1043.07 397.406 1043.02 397.188 1042.97 396.887H1042.94C1042.9 397.165 1042.85 397.383 1042.79 397.543L1041.26 401.72H1044.66ZM1049.79 404.488H1049.77V408.72H1048.64V398.5H1049.77V399.73H1049.79C1050.34 398.801 1051.15 398.336 1052.21 398.336C1053.12 398.336 1053.82 398.65 1054.33 399.279C1054.83 399.904 1055.08 400.742 1055.08 401.795C1055.08 402.966 1054.8 403.905 1054.23 404.611C1053.66 405.313 1052.88 405.664 1051.89 405.664C1050.98 405.664 1050.29 405.272 1049.79 404.488ZM1049.77 401.665V402.643C1049.77 403.221 1049.95 403.714 1050.33 404.119C1050.7 404.52 1051.18 404.721 1051.76 404.721C1052.44 404.721 1052.97 404.461 1053.35 403.941C1053.74 403.422 1053.94 402.7 1053.94 401.774C1053.94 400.995 1053.76 400.384 1053.4 399.942C1053.04 399.5 1052.55 399.279 1051.93 399.279C1051.28 399.279 1050.76 399.507 1050.36 399.963C1049.96 400.414 1049.77 400.981 1049.77 401.665ZM1060.53 399.635C1060.33 399.484 1060.05 399.409 1059.68 399.409C1059.2 399.409 1058.8 399.635 1058.47 400.086C1058.16 400.537 1058 401.152 1058 401.932V405.5H1056.88V398.5H1058V399.942H1058.02C1058.18 399.45 1058.43 399.067 1058.75 398.794C1059.08 398.516 1059.45 398.377 1059.86 398.377C1060.15 398.377 1060.37 398.409 1060.53 398.473V399.635Z" fill="#97A4BA"/>
<path d="M70.9258 373.558C70.9258 374.378 70.8506 375.105 70.7002 375.738C70.5544 376.372 70.3402 376.907 70.0576 377.345C69.7796 377.778 69.4355 378.108 69.0254 378.336C68.6198 378.559 68.1572 378.671 67.6377 378.671C67.1455 378.671 66.7057 378.564 66.3184 378.35C65.9355 378.131 65.612 377.814 65.3477 377.399C65.0833 376.985 64.8828 376.477 64.7461 375.875C64.6094 375.269 64.541 374.576 64.541 373.797C64.541 372.94 64.6117 372.184 64.7529 371.527C64.8988 370.871 65.1107 370.322 65.3887 369.88C65.6667 369.433 66.0107 369.098 66.4209 368.875C66.8356 368.647 67.3096 368.533 67.8428 368.533C69.8981 368.533 70.9258 370.208 70.9258 373.558ZM69.7773 373.667C69.7773 370.878 69.1143 369.483 67.7881 369.483C66.389 369.483 65.6895 370.903 65.6895 373.742C65.6895 376.39 66.3753 377.714 67.7471 377.714C69.1006 377.714 69.7773 376.365 69.7773 373.667Z" fill="#97A4BA"/>
<path d="M46.8516 332.5H45.7305V324.03C45.6439 324.117 45.5163 324.217 45.3477 324.331C45.1836 324.44 44.9967 324.55 44.7871 324.659C44.582 324.769 44.3633 324.871 44.1309 324.967C43.903 325.062 43.6797 325.138 43.4609 325.192V324.058C43.707 323.989 43.9668 323.898 44.2402 323.784C44.5182 323.666 44.7894 323.536 45.0537 323.395C45.3226 323.249 45.5755 323.098 45.8125 322.943C46.0495 322.784 46.2546 322.629 46.4277 322.479H46.8516V332.5ZM56.4219 327.558C56.4219 328.378 56.3467 329.105 56.1963 329.738C56.0505 330.372 55.8363 330.907 55.5537 331.345C55.2757 331.778 54.9316 332.108 54.5215 332.336C54.1159 332.559 53.6533 332.671 53.1338 332.671C52.6416 332.671 52.2018 332.564 51.8145 332.35C51.4316 332.131 51.1081 331.814 50.8438 331.399C50.5794 330.985 50.3789 330.477 50.2422 329.875C50.1055 329.269 50.0371 328.576 50.0371 327.797C50.0371 326.94 50.1077 326.184 50.249 325.527C50.3949 324.871 50.6068 324.322 50.8848 323.88C51.1628 323.433 51.5068 323.098 51.917 322.875C52.3317 322.647 52.8057 322.533 53.3389 322.533C55.3942 322.533 56.4219 324.208 56.4219 327.558ZM55.2734 327.667C55.2734 324.878 54.6104 323.483 53.2842 323.483C51.8851 323.483 51.1855 324.903 51.1855 327.742C51.1855 330.39 51.8714 331.714 53.2432 331.714C54.5967 331.714 55.2734 330.365 55.2734 327.667ZM63.9688 327.558C63.9688 328.378 63.8936 329.105 63.7432 329.738C63.5973 330.372 63.3831 330.907 63.1006 331.345C62.8226 331.778 62.4785 332.108 62.0684 332.336C61.6628 332.559 61.2002 332.671 60.6807 332.671C60.1885 332.671 59.7487 332.564 59.3613 332.35C58.9785 332.131 58.6549 331.814 58.3906 331.399C58.1263 330.985 57.9258 330.477 57.7891 329.875C57.6523 329.269 57.584 328.576 57.584 327.797C57.584 326.94 57.6546 326.184 57.7959 325.527C57.9417 324.871 58.1536 324.322 58.4316 323.88C58.7096 323.433 59.0537 323.098 59.4639 322.875C59.8786 322.647 60.3525 322.533 60.8857 322.533C62.9411 322.533 63.9688 324.208 63.9688 327.558ZM62.8203 327.667C62.8203 324.878 62.1572 323.483 60.8311 323.483C59.432 323.483 58.7324 324.903 58.7324 327.742C58.7324 330.39 59.4183 331.714 60.79 331.714C62.1436 331.714 62.8203 330.365 62.8203 327.667Z" fill="#97A4BA"/>
<path d="M47.1797 279.268C47.1797 278.967 47.1318 278.705 47.0361 278.481C46.945 278.258 46.8174 278.074 46.6533 277.928C46.4938 277.777 46.3047 277.666 46.0859 277.593C45.8672 277.52 45.6302 277.483 45.375 277.483C45.1562 277.483 44.9421 277.513 44.7324 277.572C44.5228 277.632 44.3177 277.714 44.1172 277.818C43.9212 277.923 43.7298 278.049 43.543 278.194C43.3607 278.34 43.1898 278.502 43.0303 278.68V277.477C43.3447 277.171 43.6956 276.939 44.083 276.779C44.4749 276.615 44.9512 276.533 45.5117 276.533C45.9128 276.533 46.2842 276.592 46.626 276.711C46.9678 276.825 47.264 276.993 47.5146 277.217C47.7653 277.44 47.9613 277.716 48.1025 278.044C48.2484 278.372 48.3213 278.748 48.3213 279.172C48.3213 279.559 48.2757 279.91 48.1846 280.225C48.098 280.539 47.9635 280.835 47.7812 281.113C47.6035 281.391 47.3779 281.658 47.1045 281.913C46.8311 282.168 46.5098 282.428 46.1406 282.692C45.6803 283.021 45.2998 283.301 44.999 283.533C44.7028 283.766 44.4658 283.984 44.2881 284.189C44.1149 284.39 43.9919 284.593 43.9189 284.798C43.8506 284.998 43.8164 285.231 43.8164 285.495H48.6973V286.5H42.6475V286.015C42.6475 285.595 42.693 285.226 42.7842 284.907C42.8753 284.588 43.0257 284.285 43.2354 283.998C43.445 283.711 43.7184 283.424 44.0557 283.137C44.3975 282.85 44.8145 282.526 45.3066 282.166C45.6621 281.911 45.9583 281.667 46.1953 281.435C46.4368 281.202 46.6305 280.97 46.7764 280.737C46.9222 280.505 47.0247 280.27 47.084 280.033C47.1478 279.792 47.1797 279.536 47.1797 279.268ZM56.4219 281.558C56.4219 282.378 56.3467 283.105 56.1963 283.738C56.0505 284.372 55.8363 284.907 55.5537 285.345C55.2757 285.778 54.9316 286.108 54.5215 286.336C54.1159 286.559 53.6533 286.671 53.1338 286.671C52.6416 286.671 52.2018 286.564 51.8145 286.35C51.4316 286.131 51.1081 285.814 50.8438 285.399C50.5794 284.985 50.3789 284.477 50.2422 283.875C50.1055 283.269 50.0371 282.576 50.0371 281.797C50.0371 280.94 50.1077 280.184 50.249 279.527C50.3949 278.871 50.6068 278.322 50.8848 277.88C51.1628 277.433 51.5068 277.098 51.917 276.875C52.3317 276.647 52.8057 276.533 53.3389 276.533C55.3942 276.533 56.4219 278.208 56.4219 281.558ZM55.2734 281.667C55.2734 278.878 54.6104 277.483 53.2842 277.483C51.8851 277.483 51.1855 278.903 51.1855 281.742C51.1855 284.39 51.8714 285.714 53.2432 285.714C54.5967 285.714 55.2734 284.365 55.2734 281.667ZM63.9688 281.558C63.9688 282.378 63.8936 283.105 63.7432 283.738C63.5973 284.372 63.3831 284.907 63.1006 285.345C62.8226 285.778 62.4785 286.108 62.0684 286.336C61.6628 286.559 61.2002 286.671 60.6807 286.671C60.1885 286.671 59.7487 286.564 59.3613 286.35C58.9785 286.131 58.6549 285.814 58.3906 285.399C58.1263 284.985 57.9258 284.477 57.7891 283.875C57.6523 283.269 57.584 282.576 57.584 281.797C57.584 280.94 57.6546 280.184 57.7959 279.527C57.9417 278.871 58.1536 278.322 58.4316 277.88C58.7096 277.433 59.0537 277.098 59.4639 276.875C59.8786 276.647 60.3525 276.533 60.8857 276.533C62.9411 276.533 63.9688 278.208 63.9688 281.558ZM62.8203 281.667C62.8203 278.878 62.1572 277.483 60.8311 277.483C59.432 277.483 58.7324 278.903 58.7324 281.742C58.7324 284.39 59.4183 285.714 60.79 285.714C62.1436 285.714 62.8203 284.365 62.8203 281.667Z" fill="#97A4BA"/>
<path d="M48.417 237.725C48.417 238.167 48.3327 238.57 48.1641 238.935C48 239.295 47.7653 239.604 47.46 239.864C47.1592 240.119 46.7969 240.318 46.373 240.459C45.9492 240.6 45.4821 240.671 44.9717 240.671C44.0374 240.671 43.2946 240.493 42.7432 240.138V238.935C43.404 239.454 44.1605 239.714 45.0127 239.714C45.3545 239.714 45.6621 239.671 45.9355 239.584C46.2135 239.497 46.4505 239.372 46.6465 239.208C46.847 239.044 46.9997 238.846 47.1045 238.613C47.2139 238.381 47.2686 238.119 47.2686 237.827C47.2686 236.547 46.3571 235.906 44.5342 235.906H43.7207V234.956H44.4932C46.1064 234.956 46.9131 234.354 46.9131 233.151C46.9131 232.039 46.2979 231.483 45.0674 231.483C44.3747 231.483 43.7253 231.716 43.1191 232.181V231.094C43.7435 230.72 44.4863 230.533 45.3477 230.533C45.7578 230.533 46.1292 230.59 46.4619 230.704C46.7946 230.818 47.0794 230.978 47.3164 231.183C47.5534 231.388 47.7357 231.634 47.8633 231.921C47.9954 232.208 48.0615 232.525 48.0615 232.871C48.0615 234.161 47.4098 234.99 46.1064 235.359V235.387C46.4391 235.423 46.7467 235.505 47.0293 235.633C47.3118 235.756 47.5557 235.918 47.7607 236.118C47.9658 236.319 48.1253 236.556 48.2393 236.829C48.3577 237.098 48.417 237.396 48.417 237.725ZM56.4219 235.558C56.4219 236.378 56.3467 237.105 56.1963 237.738C56.0505 238.372 55.8363 238.907 55.5537 239.345C55.2757 239.778 54.9316 240.108 54.5215 240.336C54.1159 240.559 53.6533 240.671 53.1338 240.671C52.6416 240.671 52.2018 240.564 51.8145 240.35C51.4316 240.131 51.1081 239.814 50.8438 239.399C50.5794 238.985 50.3789 238.477 50.2422 237.875C50.1055 237.269 50.0371 236.576 50.0371 235.797C50.0371 234.94 50.1077 234.184 50.249 233.527C50.3949 232.871 50.6068 232.322 50.8848 231.88C51.1628 231.433 51.5068 231.098 51.917 230.875C52.3317 230.647 52.8057 230.533 53.3389 230.533C55.3942 230.533 56.4219 232.208 56.4219 235.558ZM55.2734 235.667C55.2734 232.878 54.6104 231.483 53.2842 231.483C51.8851 231.483 51.1855 232.903 51.1855 235.742C51.1855 238.39 51.8714 239.714 53.2432 239.714C54.5967 239.714 55.2734 238.365 55.2734 235.667ZM63.9688 235.558C63.9688 236.378 63.8936 237.105 63.7432 237.738C63.5973 238.372 63.3831 238.907 63.1006 239.345C62.8226 239.778 62.4785 240.108 62.0684 240.336C61.6628 240.559 61.2002 240.671 60.6807 240.671C60.1885 240.671 59.7487 240.564 59.3613 240.35C58.9785 240.131 58.6549 239.814 58.3906 239.399C58.1263 238.985 57.9258 238.477 57.7891 237.875C57.6523 237.269 57.584 236.576 57.584 235.797C57.584 234.94 57.6546 234.184 57.7959 233.527C57.9417 232.871 58.1536 232.322 58.4316 231.88C58.7096 231.433 59.0537 231.098 59.4639 230.875C59.8786 230.647 60.3525 230.533 60.8857 230.533C62.9411 230.533 63.9688 232.208 63.9688 235.558ZM62.8203 235.667C62.8203 232.878 62.1572 231.483 60.8311 231.483C59.432 231.483 58.7324 232.903 58.7324 235.742C58.7324 238.39 59.4183 239.714 60.79 239.714C62.1436 239.714 62.8203 238.365 62.8203 235.667Z" fill="#97A4BA"/>
<path d="M47.3105 184.697V191.171H48.5684V192.196H47.3105V194.5H46.2031V192.196H41.5957V191.226C42.0241 190.743 42.457 190.228 42.8945 189.681C43.332 189.129 43.749 188.571 44.1455 188.006C44.5465 187.441 44.9157 186.878 45.2529 186.317C45.5947 185.752 45.8818 185.212 46.1143 184.697H47.3105ZM42.8604 191.171H46.2031V186.372C45.8613 186.969 45.5378 187.502 45.2324 187.972C44.9271 188.441 44.6354 188.867 44.3574 189.25C44.084 189.633 43.8219 189.979 43.5713 190.289C43.3206 190.599 43.0837 190.893 42.8604 191.171ZM56.0195 189.558C56.0195 190.378 55.9443 191.105 55.7939 191.738C55.6481 192.372 55.4339 192.907 55.1514 193.345C54.8734 193.778 54.5293 194.108 54.1191 194.336C53.7135 194.559 53.251 194.671 52.7314 194.671C52.2393 194.671 51.7995 194.564 51.4121 194.35C51.0293 194.131 50.7057 193.814 50.4414 193.399C50.1771 192.985 49.9766 192.477 49.8398 191.875C49.7031 191.269 49.6348 190.576 49.6348 189.797C49.6348 188.94 49.7054 188.184 49.8467 187.527C49.9925 186.871 50.2044 186.322 50.4824 185.88C50.7604 185.433 51.1045 185.098 51.5146 184.875C51.9294 184.647 52.4033 184.533 52.9365 184.533C54.9919 184.533 56.0195 186.208 56.0195 189.558ZM54.8711 189.667C54.8711 186.878 54.208 185.483 52.8818 185.483C51.4827 185.483 50.7832 186.903 50.7832 189.742C50.7832 192.39 51.4691 193.714 52.8408 193.714C54.1943 193.714 54.8711 192.365 54.8711 189.667ZM63.5664 189.558C63.5664 190.378 63.4912 191.105 63.3408 191.738C63.195 192.372 62.9808 192.907 62.6982 193.345C62.4202 193.778 62.0762 194.108 61.666 194.336C61.2604 194.559 60.7979 194.671 60.2783 194.671C59.7861 194.671 59.3464 194.564 58.959 194.35C58.5762 194.131 58.2526 193.814 57.9883 193.399C57.724 192.985 57.5234 192.477 57.3867 191.875C57.25 191.269 57.1816 190.576 57.1816 189.797C57.1816 188.94 57.2523 188.184 57.3936 187.527C57.5394 186.871 57.7513 186.322 58.0293 185.88C58.3073 185.433 58.6514 185.098 59.0615 184.875C59.4762 184.647 59.9502 184.533 60.4834 184.533C62.5387 184.533 63.5664 186.208 63.5664 189.558ZM62.418 189.667C62.418 186.878 61.7549 185.483 60.4287 185.483C59.0296 185.483 58.3301 186.903 58.3301 189.742C58.3301 192.39 59.016 193.714 60.3877 193.714C61.7412 193.714 62.418 192.365 62.418 189.667Z" fill="#97A4BA"/>
<path d="M48.124 145.506C48.124 145.984 48.042 146.417 47.8779 146.805C47.7139 147.192 47.4792 147.525 47.1738 147.803C46.873 148.081 46.5085 148.295 46.0801 148.445C45.6517 148.596 45.1755 148.671 44.6514 148.671C43.7399 148.671 43.0632 148.534 42.6211 148.261V147.071C43.2865 147.5 43.9678 147.714 44.665 147.714C45.0205 147.714 45.3395 147.661 45.6221 147.557C45.9092 147.452 46.153 147.306 46.3535 147.119C46.554 146.932 46.7067 146.707 46.8115 146.442C46.9209 146.178 46.9756 145.889 46.9756 145.574C46.9756 144.936 46.7614 144.437 46.333 144.077C45.9046 143.713 45.2826 143.53 44.4668 143.53C44.3346 143.53 44.1956 143.533 44.0498 143.537C43.904 143.542 43.7581 143.549 43.6123 143.558C43.4665 143.562 43.3229 143.569 43.1816 143.578C43.0449 143.587 42.9196 143.599 42.8057 143.612L43.1406 138.697H47.6729V139.709H44.1113L43.9131 142.587C44.0589 142.578 44.2139 142.571 44.3779 142.566C44.542 142.557 44.6878 142.553 44.8154 142.553C45.335 142.553 45.7998 142.621 46.21 142.758C46.6201 142.895 46.9665 143.09 47.249 143.346C47.5361 143.596 47.7526 143.906 47.8984 144.275C48.0488 144.64 48.124 145.05 48.124 145.506ZM56.0195 143.558C56.0195 144.378 55.9443 145.105 55.7939 145.738C55.6481 146.372 55.4339 146.907 55.1514 147.345C54.8734 147.778 54.5293 148.108 54.1191 148.336C53.7135 148.559 53.251 148.671 52.7314 148.671C52.2393 148.671 51.7995 148.564 51.4121 148.35C51.0293 148.131 50.7057 147.814 50.4414 147.399C50.1771 146.985 49.9766 146.477 49.8398 145.875C49.7031 145.269 49.6348 144.576 49.6348 143.797C49.6348 142.94 49.7054 142.184 49.8467 141.527C49.9925 140.871 50.2044 140.322 50.4824 139.88C50.7604 139.433 51.1045 139.098 51.5146 138.875C51.9294 138.647 52.4033 138.533 52.9365 138.533C54.9919 138.533 56.0195 140.208 56.0195 143.558ZM54.8711 143.667C54.8711 140.878 54.208 139.483 52.8818 139.483C51.4827 139.483 50.7832 140.903 50.7832 143.742C50.7832 146.39 51.4691 147.714 52.8408 147.714C54.1943 147.714 54.8711 146.365 54.8711 143.667ZM63.5664 143.558C63.5664 144.378 63.4912 145.105 63.3408 145.738C63.195 146.372 62.9808 146.907 62.6982 147.345C62.4202 147.778 62.0762 148.108 61.666 148.336C61.2604 148.559 60.7979 148.671 60.2783 148.671C59.7861 148.671 59.3464 148.564 58.959 148.35C58.5762 148.131 58.2526 147.814 57.9883 147.399C57.724 146.985 57.5234 146.477 57.3867 145.875C57.25 145.269 57.1816 144.576 57.1816 143.797C57.1816 142.94 57.2523 142.184 57.3936 141.527C57.5394 140.871 57.7513 140.322 58.0293 139.88C58.3073 139.433 58.6514 139.098 59.0615 138.875C59.4762 138.647 59.9502 138.533 60.4834 138.533C62.5387 138.533 63.5664 140.208 63.5664 143.558ZM62.418 143.667C62.418 140.878 61.7549 139.483 60.4287 139.483C59.0296 139.483 58.3301 140.903 58.3301 143.742C58.3301 146.39 59.016 147.714 60.3877 147.714C61.7412 147.714 62.418 146.365 62.418 143.667Z" fill="#97A4BA"/>
<path d="M36.3182 35.8636V47.5H34.9091V35.8636H36.3182ZM40.3026 42.25V47.5H38.9616V38.7727H40.2571V40.1364H40.3707C40.5753 39.6932 40.8859 39.3371 41.3026 39.0682C41.7192 38.7955 42.2571 38.6591 42.9162 38.6591C43.5071 38.6591 44.0241 38.7803 44.4673 39.0227C44.9105 39.2614 45.2552 39.625 45.5014 40.1136C45.7476 40.5985 45.8707 41.2121 45.8707 41.9545V47.5H44.5298V42.0455C44.5298 41.3598 44.3518 40.8258 43.9957 40.4432C43.6397 40.0568 43.151 39.8636 42.5298 39.8636C42.1018 39.8636 41.7192 39.9564 41.3821 40.142C41.0488 40.3277 40.7855 40.5985 40.5923 40.9545C40.3991 41.3106 40.3026 41.7424 40.3026 42.25ZM55.1449 38.7727L51.9176 47.5H50.554L47.3267 38.7727H48.7812L51.1903 45.7273H51.2812L53.6903 38.7727H55.1449ZM60.1477 47.6818C59.3598 47.6818 58.6686 47.4943 58.0739 47.1193C57.483 46.7443 57.0208 46.2197 56.6875 45.5455C56.358 44.8712 56.1932 44.0833 56.1932 43.1818C56.1932 42.2727 56.358 41.4792 56.6875 40.8011C57.0208 40.1231 57.483 39.5966 58.0739 39.2216C58.6686 38.8466 59.3598 38.6591 60.1477 38.6591C60.9356 38.6591 61.625 38.8466 62.2159 39.2216C62.8106 39.5966 63.2727 40.1231 63.6023 40.8011C63.9356 41.4792 64.1023 42.2727 64.1023 43.1818C64.1023 44.0833 63.9356 44.8712 63.6023 45.5455C63.2727 46.2197 62.8106 46.7443 62.2159 47.1193C61.625 47.4943 60.9356 47.6818 60.1477 47.6818ZM60.1477 46.4773C60.7462 46.4773 61.2386 46.3239 61.625 46.017C62.0114 45.7102 62.2973 45.3068 62.483 44.8068C62.6686 44.3068 62.7614 43.7652 62.7614 43.1818C62.7614 42.5985 62.6686 42.0549 62.483 41.5511C62.2973 41.0473 62.0114 40.6402 61.625 40.3295C61.2386 40.0189 60.7462 39.8636 60.1477 39.8636C59.5492 39.8636 59.0568 40.0189 58.6705 40.3295C58.2841 40.6402 57.9981 41.0473 57.8125 41.5511C57.6269 42.0549 57.5341 42.5985 57.5341 43.1818C57.5341 43.7652 57.6269 44.3068 57.8125 44.8068C57.9981 45.3068 58.2841 45.7102 58.6705 46.017C59.0568 46.3239 59.5492 46.4773 60.1477 46.4773ZM66.1491 47.5V38.7727H67.4901V47.5H66.1491ZM66.831 37.3182C66.5696 37.3182 66.3442 37.2292 66.1548 37.0511C65.9692 36.8731 65.8764 36.6591 65.8764 36.4091C65.8764 36.1591 65.9692 35.9451 66.1548 35.767C66.3442 35.589 66.5696 35.5 66.831 35.5C67.0923 35.5 67.3158 35.589 67.5014 35.767C67.6908 35.9451 67.7855 36.1591 67.7855 36.4091C67.7855 36.6591 67.6908 36.8731 67.5014 37.0511C67.3158 37.2292 67.0923 37.3182 66.831 37.3182ZM73.4915 47.6818C72.6733 47.6818 71.9688 47.4886 71.3778 47.1023C70.7869 46.7159 70.3324 46.1837 70.0142 45.5057C69.696 44.8277 69.5369 44.053 69.5369 43.1818C69.5369 42.2955 69.6998 41.5133 70.0256 40.8352C70.3551 40.1534 70.8134 39.6212 71.4006 39.2386C71.9915 38.8523 72.6809 38.6591 73.4688 38.6591C74.0824 38.6591 74.6354 38.7727 75.1278 39C75.6203 39.2273 76.0237 39.5455 76.3381 39.9545C76.6525 40.3636 76.8475 40.8409 76.9233 41.3864H75.5824C75.4801 40.9886 75.2528 40.6364 74.9006 40.3295C74.5521 40.0189 74.0824 39.8636 73.4915 39.8636C72.9688 39.8636 72.5104 40 72.1165 40.2727C71.7263 40.5417 71.4214 40.9223 71.2017 41.4148C70.9858 41.9034 70.8778 42.4773 70.8778 43.1364C70.8778 43.8106 70.9839 44.3977 71.196 44.8977C71.4119 45.3977 71.715 45.786 72.1051 46.0625C72.4991 46.339 72.9612 46.4773 73.4915 46.4773C73.84 46.4773 74.1562 46.4167 74.4403 46.2955C74.7244 46.1742 74.965 46 75.1619 45.7727C75.3589 45.5455 75.4991 45.2727 75.5824 44.9545H76.9233C76.8475 45.4697 76.66 45.9337 76.3608 46.3466C76.0653 46.7557 75.6733 47.0814 75.1847 47.3239C74.6998 47.5625 74.1354 47.6818 73.4915 47.6818ZM82.5426 47.6818C81.7017 47.6818 80.9763 47.4962 80.3665 47.125C79.7604 46.75 79.2926 46.2273 78.9631 45.5568C78.6373 44.8826 78.4744 44.0985 78.4744 43.2045C78.4744 42.3106 78.6373 41.5227 78.9631 40.8409C79.2926 40.1553 79.7509 39.6212 80.3381 39.2386C80.929 38.8523 81.6184 38.6591 82.4062 38.6591C82.8608 38.6591 83.3097 38.7348 83.7528 38.8864C84.196 39.0379 84.5994 39.2841 84.9631 39.625C85.3267 39.9621 85.6165 40.4091 85.8324 40.9659C86.0483 41.5227 86.1562 42.2083 86.1562 43.0227V43.5909H79.429V42.4318H84.7926C84.7926 41.9394 84.6941 41.5 84.4972 41.1136C84.304 40.7273 84.0275 40.4223 83.6676 40.1989C83.3116 39.9754 82.8911 39.8636 82.4062 39.8636C81.8722 39.8636 81.41 39.9962 81.0199 40.2614C80.6335 40.5227 80.3362 40.8636 80.1278 41.2841C79.9195 41.7045 79.8153 42.1553 79.8153 42.6364V43.4091C79.8153 44.0682 79.929 44.6269 80.1562 45.0852C80.3873 45.5398 80.7074 45.8864 81.1165 46.125C81.5256 46.3598 82.0009 46.4773 82.5426 46.4773C82.8949 46.4773 83.2131 46.428 83.4972 46.3295C83.785 46.2273 84.0331 46.0758 84.2415 45.875C84.4498 45.6705 84.6108 45.4167 84.7244 45.1136L86.0199 45.4773C85.8835 45.9167 85.6544 46.303 85.3324 46.6364C85.0104 46.9659 84.6127 47.2235 84.1392 47.4091C83.6657 47.5909 83.1335 47.6818 82.5426 47.6818ZM100.514 35.8636H101.923V43.5682C101.923 44.3636 101.736 45.0739 101.361 45.6989C100.99 46.3201 100.465 46.8106 99.7869 47.1705C99.1089 47.5265 98.3134 47.7045 97.4006 47.7045C96.4877 47.7045 95.6922 47.5265 95.0142 47.1705C94.3362 46.8106 93.8097 46.3201 93.4347 45.6989C93.0634 45.0739 92.8778 44.3636 92.8778 43.5682V35.8636H94.2869V43.4545C94.2869 44.0227 94.4119 44.5284 94.6619 44.9716C94.9119 45.411 95.268 45.7576 95.7301 46.0114C96.196 46.2614 96.7528 46.3864 97.4006 46.3864C98.0483 46.3864 98.6051 46.2614 99.071 46.0114C99.5369 45.7576 99.893 45.411 100.139 44.9716C100.389 44.5284 100.514 44.0227 100.514 43.4545V35.8636ZM104.555 50.7727V38.7727H105.851V40.1591H106.01C106.108 40.0076 106.245 39.8144 106.419 39.5795C106.597 39.3409 106.851 39.1288 107.18 38.9432C107.514 38.7538 107.964 38.6591 108.533 38.6591C109.268 38.6591 109.915 38.8428 110.476 39.2102C111.036 39.5777 111.474 40.0985 111.788 40.7727C112.103 41.447 112.26 42.2424 112.26 43.1591C112.26 44.0833 112.103 44.8845 111.788 45.5625C111.474 46.2367 111.038 46.7595 110.482 47.1307C109.925 47.4981 109.283 47.6818 108.555 47.6818C107.995 47.6818 107.546 47.589 107.209 47.4034C106.872 47.214 106.612 47 106.43 46.7614C106.249 46.5189 106.108 46.3182 106.01 46.1591H105.896V50.7727H104.555ZM105.874 43.1364C105.874 43.7955 105.97 44.3769 106.163 44.8807C106.357 45.3807 106.639 45.7727 107.01 46.0568C107.381 46.3371 107.836 46.4773 108.374 46.4773C108.934 46.4773 109.402 46.3295 109.777 46.0341C110.156 45.7348 110.44 45.3333 110.629 44.8295C110.822 44.322 110.919 43.7576 110.919 43.1364C110.919 42.5227 110.824 41.9697 110.635 41.4773C110.449 40.9811 110.167 40.589 109.788 40.3011C109.413 40.0095 108.942 39.8636 108.374 39.8636C107.828 39.8636 107.37 40.0019 106.999 40.2784C106.627 40.5511 106.347 40.9337 106.158 41.4261C105.968 41.9148 105.874 42.4848 105.874 43.1364ZM115.646 35.8636V47.5H114.305V35.8636H115.646ZM121.648 47.6818C120.86 47.6818 120.169 47.4943 119.574 47.1193C118.983 46.7443 118.521 46.2197 118.188 45.5455C117.858 44.8712 117.693 44.0833 117.693 43.1818C117.693 42.2727 117.858 41.4792 118.188 40.8011C118.521 40.1231 118.983 39.5966 119.574 39.2216C120.169 38.8466 120.86 38.6591 121.648 38.6591C122.436 38.6591 123.125 38.8466 123.716 39.2216C124.311 39.5966 124.773 40.1231 125.102 40.8011C125.436 41.4792 125.602 42.2727 125.602 43.1818C125.602 44.0833 125.436 44.8712 125.102 45.5455C124.773 46.2197 124.311 46.7443 123.716 47.1193C123.125 47.4943 122.436 47.6818 121.648 47.6818ZM121.648 46.4773C122.246 46.4773 122.739 46.3239 123.125 46.017C123.511 45.7102 123.797 45.3068 123.983 44.8068C124.169 44.3068 124.261 43.7652 124.261 43.1818C124.261 42.5985 124.169 42.0549 123.983 41.5511C123.797 41.0473 123.511 40.6402 123.125 40.3295C122.739 40.0189 122.246 39.8636 121.648 39.8636C121.049 39.8636 120.557 40.0189 120.17 40.3295C119.784 40.6402 119.498 41.0473 119.312 41.5511C119.127 42.0549 119.034 42.5985 119.034 43.1818C119.034 43.7652 119.127 44.3068 119.312 44.8068C119.498 45.3068 119.784 45.7102 120.17 46.017C120.557 46.3239 121.049 46.4773 121.648 46.4773ZM130.217 47.7045C129.664 47.7045 129.162 47.6004 128.712 47.392C128.261 47.1799 127.903 46.875 127.638 46.4773C127.373 46.0758 127.24 45.5909 127.24 45.0227C127.24 44.5227 127.339 44.1174 127.536 43.8068C127.732 43.4924 127.996 43.2462 128.325 43.0682C128.655 42.8902 129.018 42.7576 129.416 42.6705C129.818 42.5795 130.221 42.5076 130.626 42.4545C131.157 42.3864 131.587 42.3352 131.916 42.3011C132.25 42.2633 132.492 42.2008 132.643 42.1136C132.799 42.0265 132.876 41.875 132.876 41.6591V41.6136C132.876 41.053 132.723 40.6174 132.416 40.3068C132.113 39.9962 131.653 39.8409 131.036 39.8409C130.395 39.8409 129.893 39.9811 129.53 40.2614C129.166 40.5417 128.911 40.8409 128.763 41.1591L127.49 40.7045C127.717 40.1742 128.02 39.7614 128.399 39.4659C128.782 39.1667 129.198 38.9583 129.649 38.8409C130.104 38.7197 130.551 38.6591 130.99 38.6591C131.27 38.6591 131.592 38.6932 131.956 38.7614C132.323 38.8258 132.678 38.9602 133.018 39.1648C133.363 39.3693 133.649 39.678 133.876 40.0909C134.104 40.5038 134.217 41.0568 134.217 41.75V47.5H132.876V46.3182H132.808C132.717 46.5076 132.566 46.7102 132.354 46.9261C132.142 47.142 131.859 47.3258 131.507 47.4773C131.155 47.6288 130.725 47.7045 130.217 47.7045ZM130.422 46.5C130.952 46.5 131.399 46.3958 131.763 46.1875C132.13 45.9792 132.407 45.7102 132.592 45.3807C132.782 45.0511 132.876 44.7045 132.876 44.3409V43.1136C132.82 43.1818 132.695 43.2443 132.501 43.3011C132.312 43.3542 132.092 43.4015 131.842 43.4432C131.596 43.4811 131.356 43.5152 131.121 43.5455C130.89 43.572 130.702 43.5947 130.558 43.6136C130.21 43.6591 129.884 43.733 129.581 43.8352C129.282 43.9337 129.039 44.0833 128.854 44.2841C128.672 44.4811 128.581 44.75 128.581 45.0909C128.581 45.5568 128.753 45.9091 129.098 46.1477C129.446 46.3826 129.888 46.5 130.422 46.5ZM139.96 47.6818C139.233 47.6818 138.591 47.4981 138.034 47.1307C137.477 46.7595 137.042 46.2367 136.727 45.5625C136.413 44.8845 136.256 44.0833 136.256 43.1591C136.256 42.2424 136.413 41.447 136.727 40.7727C137.042 40.0985 137.479 39.5777 138.04 39.2102C138.6 38.8428 139.248 38.6591 139.983 38.6591C140.551 38.6591 141 38.7538 141.33 38.9432C141.663 39.1288 141.917 39.3409 142.091 39.5795C142.269 39.8144 142.407 40.0076 142.506 40.1591H142.619V35.8636H143.96V47.5H142.665V46.1591H142.506C142.407 46.3182 142.267 46.5189 142.085 46.7614C141.903 47 141.644 47.214 141.307 47.4034C140.97 47.589 140.521 47.6818 139.96 47.6818ZM140.142 46.4773C140.68 46.4773 141.134 46.3371 141.506 46.0568C141.877 45.7727 142.159 45.3807 142.352 44.8807C142.545 44.3769 142.642 43.7955 142.642 43.1364C142.642 42.4848 142.547 41.9148 142.358 41.4261C142.169 40.9337 141.888 40.5511 141.517 40.2784C141.146 40.0019 140.688 39.8636 140.142 39.8636C139.574 39.8636 139.1 40.0095 138.722 40.3011C138.347 40.589 138.064 40.9811 137.875 41.4773C137.689 41.9697 137.597 42.5227 137.597 43.1364C137.597 43.7576 137.691 44.322 137.881 44.8295C138.074 45.3333 138.358 45.7348 138.733 46.0341C139.112 46.3295 139.581 46.4773 140.142 46.4773ZM150.261 47.6818C149.42 47.6818 148.695 47.4962 148.085 47.125C147.479 46.75 147.011 46.2273 146.682 45.5568C146.356 44.8826 146.193 44.0985 146.193 43.2045C146.193 42.3106 146.356 41.5227 146.682 40.8409C147.011 40.1553 147.47 39.6212 148.057 39.2386C148.648 38.8523 149.337 38.6591 150.125 38.6591C150.58 38.6591 151.028 38.7348 151.472 38.8864C151.915 39.0379 152.318 39.2841 152.682 39.625C153.045 39.9621 153.335 40.4091 153.551 40.9659C153.767 41.5227 153.875 42.2083 153.875 43.0227V43.5909H147.148V42.4318H152.511C152.511 41.9394 152.413 41.5 152.216 41.1136C152.023 40.7273 151.746 40.4223 151.386 40.1989C151.03 39.9754 150.61 39.8636 150.125 39.8636C149.591 39.8636 149.129 39.9962 148.739 40.2614C148.352 40.5227 148.055 40.8636 147.847 41.2841C147.638 41.7045 147.534 42.1553 147.534 42.6364V43.4091C147.534 44.0682 147.648 44.6269 147.875 45.0852C148.106 45.5398 148.426 45.8864 148.835 46.125C149.244 46.3598 149.72 46.4773 150.261 46.4773C150.614 46.4773 150.932 46.428 151.216 46.3295C151.504 46.2273 151.752 46.0758 151.96 45.875C152.169 45.6705 152.33 45.4167 152.443 45.1136L153.739 45.4773C153.602 45.9167 153.373 46.303 153.051 46.6364C152.729 46.9659 152.331 47.2235 151.858 47.4091C151.384 47.5909 150.852 47.6818 150.261 47.6818ZM159.21 47.6818C158.483 47.6818 157.841 47.4981 157.284 47.1307C156.727 46.7595 156.292 46.2367 155.977 45.5625C155.663 44.8845 155.506 44.0833 155.506 43.1591C155.506 42.2424 155.663 41.447 155.977 40.7727C156.292 40.0985 156.729 39.5777 157.29 39.2102C157.85 38.8428 158.498 38.6591 159.233 38.6591C159.801 38.6591 160.25 38.7538 160.58 38.9432C160.913 39.1288 161.167 39.3409 161.341 39.5795C161.519 39.8144 161.657 40.0076 161.756 40.1591H161.869V35.8636H163.21V47.5H161.915V46.1591H161.756C161.657 46.3182 161.517 46.5189 161.335 46.7614C161.153 47 160.894 47.214 160.557 47.4034C160.22 47.589 159.771 47.6818 159.21 47.6818ZM159.392 46.4773C159.93 46.4773 160.384 46.3371 160.756 46.0568C161.127 45.7727 161.409 45.3807 161.602 44.8807C161.795 44.3769 161.892 43.7955 161.892 43.1364C161.892 42.4848 161.797 41.9148 161.608 41.4261C161.419 40.9337 161.138 40.5511 160.767 40.2784C160.396 40.0019 159.938 39.8636 159.392 39.8636C158.824 39.8636 158.35 40.0095 157.972 40.3011C157.597 40.589 157.314 40.9811 157.125 41.4773C156.939 41.9697 156.847 42.5227 156.847 43.1364C156.847 43.7576 156.941 44.322 157.131 44.8295C157.324 45.3333 157.608 45.7348 157.983 46.0341C158.362 46.3295 158.831 46.4773 159.392 46.4773Z" fill="#696F79"/>
<defs>
<filter id="filter0_d_3_872" x="0" y="0" width="1159" height="468" filterUnits="userSpaceOnUse" color-interpolation-filters="sRGB">
<feFlood flood-opacity="0" result="BackgroundImageFix"/>
<feColorMatrix in="SourceAlpha" type="matrix" values="0 0 0 0 0 0 0 0 0 0 0 0 0 0 0 0 0 0 127 0" result="hardAlpha"/>
<feOffset dy="5"/>
<feGaussianBlur stdDeviation="5"/>
<feColorMatrix type="matrix" values="0 0 0 0 0 0 0 0 0 0 0 0 0 0 0 0 0 0 0.2 0"/>
<feBlend mode="normal" in2="BackgroundImageFix" result="effect1_dropShadow_3_872"/>
<feBlend mode="normal" in="SourceGraphic" in2="effect1_dropShadow_3_872" result="shape"/>
</filter>
<linearGradient id="paint0_linear_3_872" x1="604.752" y1="105.5" x2="604.752" y2="329.516" gradientUnits="userSpaceOnUse">
<stop stop-color="#3A96FD" stop-opacity="0.102"/>
<stop offset="1" stop-color="#2E5BFF" stop-opacity="0"/>
</linearGradient>
</defs>
</svg>
