<svg width="173" height="25" viewBox="0 0 173 25" fill="none" xmlns="http://www.w3.org/2000/svg">
<path fill-rule="evenodd" clip-rule="evenodd" d="M78.1971 0.932459H3.60413V23.8747H78.1971V0.932459ZM2.67969 0V24.8071H79.1215V0H2.67969Z" fill="url(#paint0_linear_3_837)"/>
<path d="M4.46968 3.71797V19.6934H1.5757V3.71797H4.46968ZM10.3025 12.6729V19.6934H7.47871V7.71182H10.1777V9.74774H10.3181C10.5937 9.0769 11.0331 8.54387 11.6364 8.14864C12.2448 7.75342 12.9963 7.55581 13.8907 7.55581C14.7176 7.55581 15.4378 7.73262 16.0514 8.08624C16.6703 8.43986 17.1487 8.95209 17.4867 9.62293C17.83 10.2938 17.999 11.1076 17.9938 12.0645V19.6934H15.17V12.5013C15.17 11.7005 14.962 11.0738 14.546 10.6214C14.1351 10.169 13.5657 9.94275 12.8376 9.94275C12.3436 9.94275 11.9042 10.052 11.5194 10.2704C11.1397 10.4836 10.8407 10.793 10.6223 11.1986C10.4091 11.6043 10.3025 12.0957 10.3025 12.6729ZM31.1376 7.71182L26.8707 19.6934H23.7505L19.4837 7.71182H22.4946L25.2482 16.6122H25.373L28.1344 7.71182H31.1376ZM37.9103 19.9274C36.7403 19.9274 35.7262 19.67 34.8682 19.1551C34.0101 18.6403 33.3445 17.92 32.8712 16.9944C32.4032 16.0687 32.1692 14.9871 32.1692 13.7494C32.1692 12.5117 32.4032 11.4274 32.8712 10.4966C33.3445 9.56573 34.0101 8.84289 34.8682 8.32805C35.7262 7.81322 36.7403 7.55581 37.9103 7.55581C39.0804 7.55581 40.0945 7.81322 40.9525 8.32805C41.8106 8.84289 42.4736 9.56573 42.9417 10.4966C43.4149 11.4274 43.6515 12.5117 43.6515 13.7494C43.6515 14.9871 43.4149 16.0687 42.9417 16.9944C42.4736 17.92 41.8106 18.6403 40.9525 19.1551C40.0945 19.67 39.0804 19.9274 37.9103 19.9274ZM37.926 17.6652C38.5604 17.6652 39.0908 17.491 39.5172 17.1426C39.9437 16.789 40.2609 16.3157 40.4689 15.7229C40.6821 15.1301 40.7887 14.4696 40.7887 13.7416C40.7887 13.0083 40.6821 12.3453 40.4689 11.7525C40.2609 11.1544 39.9437 10.6786 39.5172 10.325C39.0908 9.97136 38.5604 9.79455 37.926 9.79455C37.2759 9.79455 36.7351 9.97136 36.3034 10.325C35.877 10.6786 35.5572 11.1544 35.344 11.7525C35.136 12.3453 35.032 13.0083 35.032 13.7416C35.032 14.4696 35.136 15.1301 35.344 15.7229C35.5572 16.3157 35.877 16.789 36.3034 17.1426C36.7351 17.491 37.2759 17.6652 37.926 17.6652ZM46.0482 19.6934V7.71182H48.872V19.6934H46.0482ZM47.4679 6.01131C47.0207 6.01131 46.6358 5.8631 46.3134 5.56668C45.991 5.26506 45.8298 4.90364 45.8298 4.48242C45.8298 4.05599 45.991 3.69457 46.3134 3.39815C46.6358 3.09653 47.0207 2.94572 47.4679 2.94572C47.9203 2.94572 48.3051 3.09653 48.6224 3.39815C48.9448 3.69457 49.106 4.05599 49.106 4.48242C49.106 4.90364 48.9448 5.26506 48.6224 5.56668C48.3051 5.8631 47.9203 6.01131 47.4679 6.01131ZM57.002 19.9274C55.806 19.9274 54.7789 19.6648 53.9208 19.1395C53.068 18.6143 52.4102 17.8888 51.9473 16.9632C51.4897 16.0323 51.2609 14.9611 51.2609 13.7494C51.2609 12.5325 51.4949 11.4586 51.9629 10.5278C52.431 9.59173 53.0914 8.86369 53.9442 8.34366C54.8023 7.81842 55.8164 7.55581 56.9864 7.55581C57.9589 7.55581 58.8195 7.73522 59.5684 8.09404C60.3224 8.44766 60.9231 8.94949 61.3703 9.59953C61.8175 10.2444 62.0723 10.9984 62.1348 11.8617H59.4358C59.3266 11.2844 59.0666 10.8034 58.6557 10.4186C58.2501 10.0286 57.7067 9.83355 57.0254 9.83355C56.4482 9.83355 55.9412 9.98956 55.5043 10.3016C55.0675 10.6084 54.7269 11.0504 54.4825 11.6277C54.2433 12.2049 54.1237 12.8965 54.1237 13.7026C54.1237 14.519 54.2433 15.2211 54.4825 15.8087C54.7217 16.3912 55.0571 16.841 55.4887 17.1582C55.9256 17.4702 56.4378 17.6262 57.0254 17.6262C57.4415 17.6262 57.8133 17.5482 58.1409 17.3922C58.4737 17.231 58.7519 16.9996 58.9756 16.698C59.1992 16.3964 59.3526 16.0297 59.4358 15.5981H62.1348C62.0671 16.4458 61.8175 17.1972 61.3859 17.8524C60.9543 18.5025 60.3666 19.0121 59.623 19.3813C58.8794 19.7454 58.0057 19.9274 57.002 19.9274ZM69.7578 19.9274C68.5565 19.9274 67.519 19.6778 66.6454 19.1785C65.7769 18.6741 65.1087 17.9617 64.6407 17.0412C64.1726 16.1155 63.9386 15.0261 63.9386 13.7728C63.9386 12.5403 64.1726 11.4586 64.6407 10.5278C65.1139 9.59173 65.7743 8.86369 66.622 8.34366C67.4696 7.81842 68.4655 7.55581 69.6096 7.55581C70.348 7.55581 71.0449 7.67541 71.7001 7.91463C72.3605 8.14864 72.943 8.51267 73.4474 9.0067C73.957 9.50073 74.3575 10.13 74.6487 10.8944C74.9399 11.6537 75.0855 12.5585 75.0855 13.609V14.4748H65.2647V12.5715H72.3787C72.3735 12.0307 72.2565 11.5497 72.0277 11.1284C71.7989 10.702 71.4791 10.3666 71.0683 10.1222C70.6626 9.87775 70.1894 9.75554 69.6486 9.75554C69.0713 9.75554 68.5643 9.89595 68.1275 10.1768C67.6906 10.4524 67.35 10.8164 67.1056 11.2688C66.8664 11.7161 66.7442 12.2075 66.739 12.7431V14.4046C66.739 15.1015 66.8664 15.6995 67.1212 16.1987C67.376 16.6928 67.7322 17.0724 68.1899 17.3376C68.6475 17.5976 69.1831 17.7276 69.7968 17.7276C70.2076 17.7276 70.5794 17.6704 70.9122 17.556C71.2451 17.4364 71.5337 17.2622 71.7781 17.0334C72.0225 16.8046 72.2071 16.5212 72.3319 16.1831L74.9685 16.4796C74.8021 17.1764 74.4849 17.7848 74.0168 18.3049C73.554 18.8197 72.9612 19.2201 72.2383 19.5061C71.5155 19.787 70.6886 19.9274 69.7578 19.9274ZM77.5992 19.6934V3.71797H83.7148C84.8693 3.71797 85.8287 3.89998 86.5932 4.264C87.3628 4.62282 87.9375 5.11426 88.3171 5.73829C88.7019 6.36233 88.8943 7.06958 88.8943 7.86003C88.8943 8.51007 88.7695 9.0665 88.5199 9.52933C88.2703 9.98696 87.9349 10.3588 87.5136 10.6448C87.0924 10.9308 86.6218 11.1362 86.1017 11.261V11.417C86.6686 11.4482 87.212 11.6225 87.732 11.9397C88.2573 12.2517 88.6863 12.6937 89.0191 13.2658C89.3519 13.8378 89.5184 14.5294 89.5184 15.3407C89.5184 16.1675 89.3181 16.9112 88.9177 17.5716C88.5173 18.2269 87.9141 18.7443 87.108 19.1239C86.302 19.5035 85.2879 19.6934 84.0658 19.6934H77.5992ZM80.4932 17.2752H83.6056C84.656 17.2752 85.4127 17.075 85.8755 16.6746C86.3436 16.2689 86.5776 15.7489 86.5776 15.1145C86.5776 14.6412 86.4606 14.2148 86.2265 13.8352C85.9925 13.4504 85.6597 13.1488 85.2281 12.9303C84.7965 12.7067 84.2816 12.5949 83.6836 12.5949H80.4932V17.2752ZM80.4932 10.5122H83.356C83.8552 10.5122 84.305 10.4212 84.7055 10.2392C85.1059 10.052 85.4205 9.78934 85.6493 9.45132C85.8833 9.1081 86.0003 8.70248 86.0003 8.23445C86.0003 7.61561 85.7819 7.10598 85.3451 6.70555C84.9135 6.30513 84.2712 6.10492 83.4184 6.10492H80.4932V10.5122ZM91.9111 19.6934V7.71182H94.6491V9.70874H94.7739C94.9923 9.0171 95.3668 8.48406 95.8972 8.10964C96.4328 7.73002 97.0439 7.54021 97.7303 7.54021C97.8863 7.54021 98.0605 7.54801 98.2529 7.56361C98.4506 7.57401 98.6144 7.59221 98.7444 7.61821V10.2158C98.6248 10.1742 98.435 10.1378 98.1749 10.1066C97.9201 10.0702 97.6731 10.052 97.4339 10.052C96.9191 10.052 96.4562 10.1638 96.0454 10.3874C95.6398 10.6058 95.32 10.91 95.0859 11.3C94.8519 11.6901 94.7349 12.1399 94.7349 12.6495V19.6934H91.9111ZM100.62 19.6934V7.71182H103.444V19.6934H100.62ZM102.04 6.01131C101.593 6.01131 101.208 5.8631 100.886 5.56668C100.563 5.26506 100.402 4.90364 100.402 4.48242C100.402 4.05599 100.563 3.69457 100.886 3.39815C101.208 3.09653 101.593 2.94572 102.04 2.94572C102.493 2.94572 102.877 3.09653 103.195 3.39815C103.517 3.69457 103.678 4.05599 103.678 4.48242C103.678 4.90364 103.517 5.26506 103.195 5.56668C102.877 5.8631 102.493 6.01131 102.04 6.01131ZM110.794 19.904C109.853 19.904 109.01 19.6622 108.267 19.1785C107.523 18.6949 106.936 17.9929 106.504 17.0724C106.072 16.1519 105.856 15.0339 105.856 13.7182C105.856 12.3869 106.075 11.2636 106.512 10.3484C106.954 9.42792 107.549 8.73368 108.298 8.26565C109.047 7.79242 109.882 7.55581 110.802 7.55581C111.504 7.55581 112.081 7.67541 112.534 7.91463C112.986 8.14864 113.345 8.43206 113.61 8.76488C113.875 9.0925 114.081 9.40192 114.226 9.69314H114.343V3.71797H117.175V19.6934H114.398V17.8056H114.226C114.081 18.0969 113.87 18.4063 113.595 18.7339C113.319 19.0563 112.955 19.3319 112.502 19.5608C112.05 19.7896 111.481 19.904 110.794 19.904ZM111.582 17.5872C112.18 17.5872 112.69 17.426 113.111 17.1036C113.532 16.776 113.852 16.321 114.07 15.7385C114.289 15.1561 114.398 14.4774 114.398 13.7026C114.398 12.9277 114.289 12.2543 114.07 11.6823C113.857 11.1102 113.54 10.6656 113.119 10.3484C112.703 10.0312 112.19 9.87255 111.582 9.87255C110.953 9.87255 110.428 10.0364 110.006 10.364C109.585 10.6916 109.268 11.144 109.055 11.7213C108.841 12.2985 108.735 12.9589 108.735 13.7026C108.735 14.4514 108.841 15.1197 109.055 15.7073C109.273 16.2897 109.593 16.75 110.014 17.088C110.441 17.4208 110.963 17.5872 111.582 17.5872ZM125.395 24.4361C124.381 24.4361 123.51 24.2982 122.782 24.0226C122.054 23.7522 121.468 23.3882 121.026 22.9306C120.584 22.4729 120.278 21.9659 120.106 21.4095L122.649 20.7932C122.763 21.0272 122.93 21.2587 123.148 21.4875C123.367 21.7215 123.66 21.9139 124.03 22.0647C124.404 22.2207 124.875 22.2987 125.442 22.2987C126.242 22.2987 126.905 22.1037 127.431 21.7137C127.956 21.3289 128.218 20.6944 128.218 19.8104V17.5404H128.078C127.932 17.8316 127.719 18.1307 127.438 18.4375C127.163 18.7443 126.796 19.0017 126.339 19.2097C125.886 19.4177 125.317 19.5217 124.63 19.5217C123.71 19.5217 122.875 19.3059 122.126 18.8743C121.383 18.4375 120.79 17.7874 120.348 16.9242C119.911 16.0557 119.693 14.9689 119.693 13.6636C119.693 12.3479 119.911 11.2376 120.348 10.3328C120.79 9.42272 121.385 8.73368 122.134 8.26565C122.883 7.79242 123.718 7.55581 124.638 7.55581C125.34 7.55581 125.917 7.67541 126.37 7.91463C126.827 8.14864 127.191 8.43206 127.462 8.76488C127.732 9.0925 127.938 9.40192 128.078 9.69314H128.234V7.71182H131.019V19.8884C131.019 20.9128 130.774 21.7605 130.286 22.4313C129.797 23.1022 129.129 23.604 128.281 23.9368C127.433 24.2696 126.471 24.4361 125.395 24.4361ZM125.418 17.3064C126.016 17.3064 126.526 17.1608 126.947 16.8696C127.368 16.5784 127.688 16.1597 127.906 15.6137C128.125 15.0677 128.234 14.4124 128.234 13.648C128.234 12.8939 128.125 12.2335 127.906 11.6667C127.693 11.0998 127.376 10.6604 126.955 10.3484C126.539 10.0312 126.027 9.87255 125.418 9.87255C124.789 9.87255 124.264 10.0364 123.842 10.364C123.421 10.6916 123.104 11.1414 122.891 11.7135C122.678 12.2803 122.571 12.9251 122.571 13.648C122.571 14.3812 122.678 15.0235 122.891 15.5747C123.109 16.1207 123.429 16.5472 123.85 16.854C124.277 17.1556 124.799 17.3064 125.418 17.3064ZM139.217 19.9274C138.016 19.9274 136.978 19.6778 136.105 19.1785C135.236 18.6741 134.568 17.9617 134.1 17.0412C133.632 16.1155 133.398 15.0261 133.398 13.7728C133.398 12.5403 133.632 11.4586 134.1 10.5278C134.573 9.59173 135.234 8.86369 136.081 8.34366C136.929 7.81842 137.925 7.55581 139.069 7.55581C139.807 7.55581 140.504 7.67541 141.159 7.91463C141.82 8.14864 142.402 8.51267 142.907 9.0067C143.416 9.50073 143.817 10.13 144.108 10.8944C144.399 11.6537 144.545 12.5585 144.545 13.609V14.4748H134.724V12.5715H141.838C141.833 12.0307 141.716 11.5497 141.487 11.1284C141.258 10.702 140.938 10.3666 140.528 10.1222C140.122 9.87775 139.649 9.75554 139.108 9.75554C138.531 9.75554 138.024 9.89595 137.587 10.1768C137.15 10.4524 136.809 10.8164 136.565 11.2688C136.326 11.7161 136.204 12.2075 136.198 12.7431V14.4046C136.198 15.1015 136.326 15.6995 136.581 16.1987C136.835 16.6928 137.192 17.0724 137.649 17.3376C138.107 17.5976 138.643 17.7276 139.256 17.7276C139.667 17.7276 140.039 17.6704 140.372 17.556C140.704 17.4364 140.993 17.2622 141.238 17.0334C141.482 16.8046 141.667 16.5212 141.791 16.1831L144.428 16.4796C144.261 17.1764 143.944 17.7848 143.476 18.3049C143.013 18.8197 142.421 19.2201 141.698 19.5061C140.975 19.787 140.148 19.9274 139.217 19.9274ZM154.559 19.6934H151.47L157.094 3.71797H160.667L166.299 19.6934H163.21L158.943 6.99417H158.818L154.559 19.6934ZM154.66 13.4296H163.085V15.7541H154.66V13.4296ZM171.297 3.71797V19.6934H168.403V3.71797H171.297Z" fill="url(#paint1_linear_3_837)"/>
<defs>
<linearGradient id="paint0_linear_3_837" x1="2.67969" y1="12.4036" x2="155.113" y2="11.772" gradientUnits="userSpaceOnUse">
<stop stop-color="#091E3A"/>
<stop offset="0.5" stop-color="#2F80ED"/>
<stop offset="1" stop-color="#2D9EE0"/>
</linearGradient>
<linearGradient id="paint1_linear_3_837" x1="0" y1="12.1934" x2="173" y2="12.1934" gradientUnits="userSpaceOnUse">
<stop stop-color="#091E3A"/>
<stop offset="0.5" stop-color="#2F80ED"/>
<stop offset="1" stop-color="#2D9EE0"/>
</linearGradient>
</defs>
</svg>
