<svg width="101" height="101" viewBox="0 0 101 101" fill="none" xmlns="http://www.w3.org/2000/svg">
<circle cx="50.5" cy="50.5" r="50.5" fill="#FFF5D9"/>
<g clip-path="url(#clip0_4_349)">
<path d="M63.4859 21.6429H38.2359V43.2857H40.7609L41.4823 45.8107L41.8431 46.1715V25.25H59.8788V39.6786H74.3073V72.1429H52.6645L53.7466 73.9465L51.9431 75.75H77.9145V36.0715L63.4859 21.6429ZM63.4859 36.0715V25.25L74.3073 36.0715H63.4859ZM40.0395 63.125C40.0395 64.0817 39.6594 64.9992 38.983 65.6757C38.3065 66.3521 37.389 66.7322 36.4323 66.7322C35.4757 66.7322 34.5582 66.3521 33.8817 65.6757C33.2052 64.9992 32.8252 64.0817 32.8252 63.125C32.8252 62.1684 33.2052 61.2509 33.8817 60.5744C34.5582 59.8979 35.4757 59.5179 36.4323 59.5179C37.389 59.5179 38.3065 59.8979 38.983 60.5744C39.6594 61.2509 40.0395 62.1684 40.0395 63.125Z" fill="#FFBB38"/>
<path d="M48.6966 66.3715L52.6645 64.9286V61.3215L48.6966 59.8786C48.3359 58.7965 47.9752 57.7143 47.2538 56.6322L49.0573 53.025L46.5323 50.5L42.9252 52.3036C41.8431 51.5822 40.7609 51.2215 39.6788 50.8607L38.2359 46.8929H34.6288L33.1859 50.8607C32.1038 51.2215 31.0216 51.5822 29.9395 52.3036L26.3323 50.5L23.8073 53.025L25.6109 56.9929C24.8895 58.075 24.5288 59.1572 24.1681 60.2393L20.2002 61.3215V64.9286L24.1681 66.3715C24.5288 67.4536 24.8895 68.5357 25.6109 69.6179L23.8073 73.225L26.3323 75.75L30.3002 73.9465C31.3823 74.6679 32.4645 75.0286 33.5466 75.3893L34.6288 79.3572H38.2359L39.6788 75.3893C40.7609 75.0286 41.8431 74.6679 42.9252 73.9465L46.5323 75.75L49.0573 73.225L47.2538 69.2572C47.9752 68.5357 48.3359 67.4536 48.6966 66.3715ZM36.4323 70.3393C32.4645 70.3393 29.2181 67.0929 29.2181 63.125C29.2181 59.1572 32.4645 55.9107 36.4323 55.9107C40.4002 55.9107 43.6466 59.1572 43.6466 63.125C43.6466 67.0929 40.4002 70.3393 36.4323 70.3393Z" fill="#FFBB38"/>
</g>
<defs>
<clipPath id="clip0_4_349">
<rect width="57.7143" height="57.7143" fill="white" transform="translate(20.2002 21.6429)"/>
</clipPath>
</defs>
</svg>
