<svg width="100" height="100" viewBox="0 0 100 100" fill="none" xmlns="http://www.w3.org/2000/svg">
<circle cx="50" cy="50" r="50" fill="#E7EDFF"/>
<path d="M65.4771 69.0472C65.4771 69.3629 65.3517 69.6657 65.1284 69.889C64.9052 70.1122 64.6024 70.2376 64.2866 70.2376H35.7152C35.3995 70.2376 35.0967 70.1122 34.8734 69.889C34.6502 69.6657 34.5247 69.3629 34.5247 69.0472V61.9043H30.9533V69.0472C30.9533 70.3101 31.455 71.5213 32.348 72.4143C33.2411 73.3074 34.4523 73.8091 35.7152 73.8091H64.2866C65.5496 73.8091 66.7608 73.3074 67.6538 72.4143C68.5468 71.5213 69.0485 70.3101 69.0485 69.0472V44.8281C69.0483 43.5653 68.5464 42.3543 67.6533 41.4614L53.7747 27.5853L53.6581 27.49L53.5724 27.4186C53.4089 27.2636 53.2347 27.1204 53.0509 26.99C52.9891 26.9522 52.9255 26.9173 52.8605 26.8853L52.7462 26.8281L52.6271 26.7591C52.4985 26.6853 52.3676 26.6091 52.2319 26.5519C51.7575 26.3635 51.2558 26.2525 50.7462 26.2234C50.6985 26.2202 50.6517 26.2146 50.6057 26.2067L50.4105 26.19H35.7152C34.4523 26.19 33.2411 26.6917 32.348 27.5847C31.455 28.4778 30.9533 29.689 30.9533 30.9519V52.3805H34.5247V30.9519C34.5247 30.6362 34.6502 30.3334 34.8734 30.1101C35.0967 29.8869 35.3995 29.7614 35.7152 29.7614H50.0009V40.4757C50.0009 41.7387 50.5026 42.9499 51.3957 43.8429C52.2887 44.7359 53.4999 45.2376 54.7628 45.2376H65.4771V69.0472ZM53.5724 32.4305L62.8057 41.6662H54.7628C54.4471 41.6662 54.1443 41.5408 53.921 41.3175C53.6978 41.0943 53.5724 40.7915 53.5724 40.4757V32.4305ZM42.2628 48.8091C41.7892 48.8091 41.335 48.9972 41.0001 49.3321C40.6653 49.667 40.4771 50.1212 40.4771 50.5948C40.4771 51.0684 40.6653 51.5226 41.0001 51.8575C41.335 52.1924 41.7892 52.3805 42.2628 52.3805H57.739C58.2126 52.3805 58.6668 52.1924 59.0017 51.8575C59.3366 51.5226 59.5247 51.0684 59.5247 50.5948C59.5247 50.1212 59.3366 49.667 59.0017 49.3321C58.6668 48.9972 58.2126 48.8091 57.739 48.8091H42.2628ZM27.9771 55.3567C27.5035 55.3567 27.0493 55.5448 26.7144 55.8797C26.3795 56.2146 26.1914 56.6688 26.1914 57.1424C26.1914 57.616 26.3795 58.0702 26.7144 58.4051C27.0493 58.74 27.5035 58.9281 27.9771 58.9281H43.4533C43.9269 58.9281 44.3811 58.74 44.716 58.4051C45.0509 58.0702 45.239 57.616 45.239 57.1424C45.239 56.6688 45.0509 56.2146 44.716 55.8797C44.3811 55.5448 43.9269 55.3567 43.4533 55.3567H27.9771ZM42.2628 61.9043C41.7892 61.9043 41.335 62.0924 41.0001 62.4273C40.6653 62.7622 40.4771 63.2164 40.4771 63.69C40.4771 64.1636 40.6653 64.6178 41.0001 64.9527C41.335 65.2876 41.7892 65.4757 42.2628 65.4757H57.739C58.2126 65.4757 58.6668 65.2876 59.0017 64.9527C59.3366 64.6178 59.5247 64.1636 59.5247 63.69C59.5247 63.2164 59.3366 62.7622 59.0017 62.4273C58.6668 62.0924 58.2126 61.9043 57.739 61.9043H42.2628Z" fill="#396AFF"/>
</svg>
